<?xml version="1.0" encoding="utf-8"?>
<!-- Generator: Adobe Illustrator 28.5.0, SVG Export Plug-In . SVG Version: 9.03 Build 54727)  -->
<svg version="1.1" id="Layer_1" xmlns="http://www.w3.org/2000/svg" xmlns:xlink="http://www.w3.org/1999/xlink" x="0px" y="0px"
	 viewBox="0 0 2312.11 832.68" enable-background="new 0 0 2312.11 832.68" xml:space="preserve">
<rect x="-72.43" y="-107.97" fill="#FFFFFF" width="2457.29" height="1026.58"/>
<g>
	<g>
		<rect x="399.79" y="282.18" fill="#F29872" width="268.31" height="268.31"/>
		<g>
			<path fill="#FFFFFF" d="M533.94,529.2C533.94,529.2,533.95,529.2,533.94,529.2c-6.18,0-13.02-3.3-15.83-10.58
				c-4.92,6.05-12.44,7.08-18.32,5.17c-5.88-1.91-11.36-7.16-11.78-14.95c-6.55,4.24-14.02,2.89-19.02-0.74
				c-5-3.63-8.59-10.32-6.59-17.86c-7.54,2.01-14.23-1.58-17.86-6.59c-3.63-5-4.98-12.47-0.74-19.02
				c-7.79-0.42-13.04-5.9-14.95-11.78c-1.91-5.88-0.88-13.4,5.17-18.32c-7.28-2.81-10.58-9.64-10.58-15.83
				c0-6.18,3.3-13.02,10.58-15.83c-6.05-4.92-7.08-12.44-5.17-18.32c1.91-5.88,7.16-11.36,14.95-11.78
				c-4.24-6.55-2.89-14.02,0.74-19.02c3.63-5,10.32-8.59,17.86-6.59c-2.01-7.54,1.58-14.23,6.59-17.86c5-3.64,12.47-4.98,19.02-0.74
				c0.42-7.79,5.9-13.04,11.78-14.95c5.88-1.91,13.4-0.88,18.32,5.17c2.81-7.28,9.64-10.58,15.83-10.58
				c6.18,0,13.02,3.3,15.83,10.58c4.92-6.05,12.44-7.08,18.32-5.17s11.36,7.16,11.78,14.95c6.55-4.24,14.02-2.89,19.02,0.74
				c5,3.63,8.59,10.32,6.59,17.86c7.54-2.01,14.23,1.58,17.86,6.59c3.63,5,4.98,12.47,0.74,19.02c7.79,0.42,13.04,5.9,14.95,11.78
				s0.88,13.4-5.17,18.32c7.28,2.81,10.58,9.64,10.58,15.83c0,6.18-3.3,13.02-10.58,15.83c6.05,4.92,7.08,12.44,5.17,18.32
				c-1.91,5.88-7.16,11.36-14.95,11.78c4.24,6.55,2.89,14.02-0.74,19.02c-3.63,5-10.33,8.59-17.86,6.59
				c2.01,7.54-1.58,14.23-6.59,17.86c-5,3.63-12.47,4.98-19.02,0.74c-0.42,7.79-5.9,13.04-11.78,14.95
				c-5.88,1.91-13.4,0.88-18.32-5.17C546.96,525.9,540.13,529.2,533.94,529.2z M517.6,513.68c0.61-1.13,2.3-0.86,2.53,0.4l0.1,0.57
				c1.44,7.89,7.92,11.43,13.71,11.43c5.78,0,12.26-3.53,13.71-11.43l0.1-0.57c0.23-1.26,1.92-1.53,2.53-0.4l0.28,0.51
				c3.81,7.06,11.07,8.42,16.57,6.63c5.5-1.79,10.57-7.15,9.5-15.1l-0.08-0.58c-0.17-1.27,1.35-2.05,2.28-1.16l0.42,0.4
				c5.81,5.54,13.13,4.59,17.81,1.19c4.68-3.4,7.84-10.07,4.37-17.3l-0.25-0.52c-0.55-1.16,0.65-2.36,1.81-1.81l0.52,0.25
				c7.24,3.47,13.9,0.31,17.3-4.37c3.4-4.68,4.35-12-1.19-17.81l-0.4-0.42c-0.88-0.93-0.11-2.45,1.16-2.28l0.58,0.08
				c7.96,1.07,13.32-4.01,15.1-9.5c1.79-5.5,0.43-12.75-6.63-16.57l-0.51-0.28c-1.13-0.61-0.86-2.3,0.4-2.53l0.57-0.1
				c7.89-1.44,11.43-7.92,11.43-13.71c0-5.78-3.53-12.26-11.43-13.71l-0.57-0.1c-1.26-0.23-1.53-1.92-0.4-2.53l0.51-0.28
				c7.06-3.81,8.42-11.07,6.63-16.57c-1.79-5.5-7.15-10.57-15.1-9.5l-0.58,0.08c-1.27,0.17-2.05-1.35-1.16-2.28l0.4-0.42
				c5.54-5.81,4.59-13.13,1.19-17.81c-3.4-4.68-10.07-7.84-17.3-4.37l-0.52,0.25c-1.16,0.55-2.36-0.65-1.81-1.81l0.25-0.52
				c3.47-7.23,0.31-13.9-4.37-17.3c-4.68-3.4-12-4.35-17.81,1.19l-0.42,0.4c-0.93,0.88-2.45,0.11-2.28-1.16l0.08-0.58
				c1.07-7.95-4.01-13.32-9.5-15.1c-5.5-1.79-12.75-0.43-16.57,6.63l-0.28,0.51c-0.61,1.13-2.3,0.86-2.53-0.4l-0.1-0.57
				c-1.44-7.89-7.92-11.43-13.71-11.43c-5.78,0-12.26,3.53-13.71,11.43l-0.1,0.57c-0.23,1.26-1.92,1.53-2.53,0.4l-0.28-0.51
				c-3.81-7.06-11.07-8.42-16.57-6.63c-5.5,1.79-10.57,7.15-9.5,15.1l0.08,0.58c0.17,1.27-1.35,2.05-2.28,1.16l-0.42-0.4
				c-5.81-5.54-13.13-4.59-17.81-1.19c-4.68,3.4-7.84,10.07-4.37,17.3l0.25,0.52c0.55,1.16-0.65,2.36-1.81,1.81l-0.52-0.25
				c-7.24-3.47-13.9-0.31-17.3,4.37c-3.4,4.68-4.35,12,1.19,17.81l0.4,0.42c0.88,0.93,0.11,2.45-1.16,2.28l-0.58-0.08
				c-7.95-1.07-13.32,4.01-15.1,9.5c-1.79,5.5-0.43,12.75,6.63,16.57l0.51,0.28c1.13,0.61,0.86,2.3-0.4,2.53l-0.57,0.1
				c-7.89,1.44-11.43,7.92-11.43,13.71c0,5.78,3.53,12.26,11.43,13.71l0.57,0.1c1.26,0.23,1.53,1.92,0.4,2.53l-0.51,0.28
				c-7.06,3.81-8.42,11.07-6.63,16.57s7.15,10.57,15.1,9.5l0.58-0.08c1.27-0.17,2.05,1.35,1.16,2.28l-0.4,0.42
				c-5.54,5.81-4.59,13.13-1.19,17.81c3.4,4.68,10.07,7.84,17.3,4.37l0.52-0.25c1.16-0.55,2.36,0.65,1.81,1.81l-0.25,0.52
				c-3.47,7.23-0.31,13.9,4.37,17.3c4.68,3.4,12,4.35,17.81-1.19l0.42-0.4c0.93-0.88,2.45-0.11,2.28,1.16l-0.08,0.58
				c-1.07,7.95,4.01,13.32,9.5,15.1c5.5,1.79,12.76,0.43,16.57-6.63L517.6,513.68z"/>
			<g>
				<g>
					<path fill="#FFFFFF" d="M495.64,431.37h3.9c3.64,0,5.63,1.91,5.63,5.37v2.91c0,1.95-0.96,3.42-2.17,4.2
						c1.73,0.59,2.83,2.32,2.83,4.6v3.02c0,3.31-2.28,5.67-5.96,5.67h-4.23c-1.14,0-1.95-0.81-1.95-1.95v-21.86
						C493.69,432.18,494.5,431.37,495.64,431.37z M499.29,442.23c1.25,0,2.02-0.81,2.02-2.17v-2.98c0-1.58-0.59-2.28-2.17-2.28
						h-1.58v7.43H499.29z M499.47,453.71c1.73,0,2.5-0.88,2.5-2.5v-3.02c0-1.66-0.85-2.54-2.39-2.54h-2.02v8.06H499.47z"/>
					<path fill="#FFFFFF" d="M514.19,430.85c3.75,0,6.11,2.43,6.11,6.15v14.5c0,3.72-2.36,6.15-6.11,6.15
						c-3.75,0-6.11-2.43-6.11-6.15V437C508.08,433.28,510.44,430.85,514.19,430.85z M514.19,454.3c1.36,0,2.21-0.92,2.21-2.25v-15.6
						c0-1.32-0.85-2.25-2.21-2.25s-2.21,0.92-2.21,2.25v15.6C511.99,453.38,512.83,454.3,514.19,454.3z"/>
					<path fill="#FFFFFF" d="M522.29,455.4c0-0.37,0.11-0.63,0.18-0.85l7.29-19.73h-5.59c-1.03,0-1.73-0.74-1.73-1.73
						s0.7-1.73,1.73-1.73h8.21c1.03,0,1.73,0.74,1.73,1.73c0,0.37-0.11,0.63-0.18,0.88l-7.29,19.69h5.74c1.03,0,1.73,0.74,1.73,1.73
						s-0.7,1.73-1.73,1.73h-8.39C522.95,457.13,522.29,456.4,522.29,455.4z M526.41,424.63h0.81l0.96,2.21l0.96-2.21h0.81
						c0.96,0,1.55,0.66,1.55,1.47c0,0.33-0.11,0.66-0.33,0.99l-0.85,1.29c-0.59,0.88-0.96,1.44-2.13,1.44s-1.55-0.55-2.13-1.44
						l-0.85-1.29c-0.22-0.33-0.33-0.66-0.33-0.99C524.87,425.3,525.46,424.63,526.41,424.63z"/>
					<path fill="#FFFFFF" d="M537.56,448.74c1.18,0,1.88,0.74,1.88,1.88v0.88c0,1.62,0.52,2.87,2.17,2.87c1.51,0,2.13-1.1,2.13-2.91
						c0-2.76-1.51-4.2-3.24-5.78c-2.69-2.43-4.93-4.89-4.93-8.58c0-4.16,2.25-6.26,5.82-6.26c3.42,0,5.67,2.21,5.67,5.78v1.29
						c0,1.1-0.74,1.8-1.84,1.8c-1.07,0-1.84-0.7-1.84-1.8v-1.18c0-1.58-0.66-2.54-1.99-2.54c-1.44,0-1.99,1.03-1.99,2.61
						c0,2.39,1.33,3.83,3.02,5.41c2.1,1.99,5.15,4.78,5.15,8.87c0,3.83-2.36,6.55-6.04,6.55c-3.64,0-5.78-2.58-5.78-6v-1.03
						C535.76,449.37,536.46,448.74,537.56,448.74z"/>
					<path fill="#FFFFFF" d="M554.05,444.25v11.3c0,1.14-0.81,1.95-1.95,1.95c-1.18,0-1.95-0.81-1.95-1.95v-22.6
						c0-1.14,0.77-1.95,1.95-1.95c1.14,0,1.95,0.81,1.95,1.95v10.71l4.34-11.41c0.33-0.88,0.88-1.25,1.8-1.25
						c0.96,0,1.88,0.59,1.88,1.73c0,0.26-0.07,0.55-0.18,0.88l-4.12,10.38l4.27,10.71c0.15,0.37,0.22,0.66,0.22,0.96
						c0,1.14-0.81,1.84-1.88,1.84c-0.99,0-1.55-0.55-1.88-1.4L554.05,444.25z"/>
					<path fill="#FFFFFF" d="M573.82,431c1.14,0,1.95,0.74,1.95,1.77c0,0.33-0.07,0.59-0.15,0.77l-4.31,12v10.01
						c0,1.14-0.81,1.95-1.95,1.95s-1.95-0.81-1.95-1.95v-10.01l-4.31-12c-0.07-0.18-0.15-0.52-0.15-0.77c0-1.03,0.81-1.77,1.95-1.77
						c1.07,0,1.66,0.59,1.91,1.44l2.36,7.84c0.07,0.26,0.15,0.55,0.18,0.81c0.04-0.26,0.11-0.55,0.18-0.81l2.36-7.84
						C572.16,431.59,572.75,431,573.82,431z M568.48,426.47c0.22-1.18,0.85-1.84,2.02-1.84c1.07,0,1.91,0.7,1.91,1.73
						c0,0.33-0.07,0.63-0.18,0.85l-1.14,2.61h-3.28L568.48,426.47z"/>
				</g>
				<g>
					<path fill="#FFFFFF" d="M497.05,476.23v9.6c0,0.97-0.69,1.66-1.66,1.66c-1,0-1.66-0.69-1.66-1.66v-19.2
						c0-0.97,0.66-1.66,1.66-1.66c0.97,0,1.66,0.69,1.66,1.66v9.1l3.69-9.69c0.28-0.75,0.75-1.06,1.53-1.06
						c0.81,0,1.59,0.5,1.59,1.47c0,0.22-0.06,0.47-0.16,0.75l-3.5,8.82l3.63,9.1c0.12,0.31,0.19,0.56,0.19,0.81
						c0,0.97-0.69,1.56-1.59,1.56c-0.84,0-1.31-0.47-1.59-1.19L497.05,476.23z"/>
					<path fill="#FFFFFF" d="M510.64,464.85c3.19,0,5.19,2.06,5.19,5.22v12.32c0,3.16-2,5.22-5.19,5.22c-3.19,0-5.19-2.06-5.19-5.22
						v-12.32C505.45,466.91,507.45,464.85,510.64,464.85z M510.64,484.76c1.16,0,1.88-0.78,1.88-1.91V469.6
						c0-1.13-0.72-1.91-1.88-1.91s-1.88,0.78-1.88,1.91v13.26C508.77,483.98,509.49,484.76,510.64,484.76z"/>
					<path fill="#FFFFFF" d="M521.83,478.54v7.29c0,0.97-0.69,1.66-1.66,1.66s-1.66-0.69-1.66-1.66v-18.88
						c0-0.97,0.69-1.66,1.66-1.66h2.94c3.41,0,5.38,1.72,5.38,5.35v2.5c0,3.28-2.19,5.41-5.44,5.41H521.83z M522.96,475.6
						c1.41,0,2.22-0.84,2.22-2.34v-2.69c0-1.47-0.75-2.34-2.16-2.34h-1.19v7.38H522.96z"/>
					<path fill="#FFFFFF" d="M532.18,465.29h6.25c0.88,0,1.47,0.63,1.47,1.47c0,0.88-0.59,1.47-1.47,1.47h-4.6v6.38h3.56
						c0.84,0,1.47,0.63,1.47,1.47c0,0.88-0.63,1.47-1.47,1.47h-3.56v6.69h4.63c0.88,0,1.47,0.63,1.47,1.47
						c0,0.84-0.59,1.47-1.47,1.47h-6.28c-0.97,0-1.66-0.69-1.66-1.66v-18.57C530.52,465.97,531.21,465.29,532.18,465.29z"/>
					<path fill="#FFFFFF" d="M551.5,470.13v1.66c0,0.97-0.63,1.59-1.56,1.59c-0.97,0-1.56-0.62-1.56-1.59v-2.19
						c0-1.28-0.69-1.91-1.78-1.91s-1.75,0.62-1.75,1.91v13.26c0,1.28,0.66,1.91,1.75,1.91s1.78-0.63,1.78-1.91v-2.19
						c0-0.97,0.59-1.59,1.56-1.59c0.94,0,1.56,0.63,1.56,1.59v1.66c0,3.19-1.72,5.28-4.94,5.28c-3.28,0-5.03-2.03-5.03-5.28v-12.19
						c0-3.25,1.75-5.28,5.03-5.28C549.78,464.85,551.5,466.94,551.5,470.13z M544.99,459.56h0.69l0.81,1.88l0.81-1.88H548
						c0.81,0,1.31,0.56,1.31,1.25c0,0.28-0.09,0.56-0.28,0.84l-0.72,1.09c-0.5,0.75-0.81,1.22-1.81,1.22s-1.31-0.47-1.81-1.22
						l-0.72-1.09c-0.19-0.28-0.28-0.56-0.28-0.84C543.68,460.13,544.18,459.56,544.99,459.56z"/>
					<path fill="#FFFFFF" d="M555.59,465.29h6.25c0.88,0,1.47,0.63,1.47,1.47c0,0.88-0.59,1.47-1.47,1.47h-4.6v6.38h3.56
						c0.84,0,1.47,0.63,1.47,1.47c0,0.88-0.63,1.47-1.47,1.47h-3.56v6.69h4.63c0.88,0,1.47,0.63,1.47,1.47
						c0,0.84-0.59,1.47-1.47,1.47h-6.28c-0.97,0-1.66-0.69-1.66-1.66v-18.57C553.93,465.97,554.62,465.29,555.59,465.29z"/>
					<path fill="#FFFFFF" d="M568.69,476.23v9.6c0,0.97-0.69,1.66-1.66,1.66c-1,0-1.66-0.69-1.66-1.66v-19.2
						c0-0.97,0.66-1.66,1.66-1.66c0.97,0,1.66,0.69,1.66,1.66v9.1l3.69-9.69c0.28-0.75,0.75-1.06,1.53-1.06
						c0.81,0,1.59,0.5,1.59,1.47c0,0.22-0.06,0.47-0.16,0.75l-3.5,8.82l3.63,9.1c0.12,0.31,0.19,0.56,0.19,0.81
						c0,0.97-0.69,1.56-1.59,1.56c-0.84,0-1.31-0.47-1.59-1.19L568.69,476.23z"/>
				</g>
			</g>
			<g>
				<path fill="#FFFFFF" d="M523.68,352.16c4.11,0,7.86,1.57,10.7,4.13c2.73-2.28,6.24-3.66,10.07-3.66c0.63,0,1.25,0.04,1.86,0.11
					c0.15-0.79,0.24-1.61,0.24-2.44c0-6.99-5.65-12.66-12.61-12.66c-6.96,0-12.61,5.67-12.61,12.66c0,0.68,0.06,1.35,0.16,2.01
					C522.21,352.21,522.94,352.16,523.68,352.16z"/>
				<path fill="#FFFFFF" d="M528.68,368.47c0-3.75,1.31-7.2,3.49-9.92c-2.26-2-5.23-3.22-8.49-3.22c-7.09,0-12.85,5.78-12.85,12.9
					c0,2.85,0.92,5.49,2.49,7.63h17.19C529.34,373.65,528.68,371.14,528.68,368.47z"/>
				<path fill="#FFFFFF" d="M544.45,355.81c-6.96,0-12.61,5.67-12.61,12.66c0,2.76,0.88,5.31,2.37,7.39h20.47
					c1.49-2.08,2.37-4.63,2.37-7.39C557.06,361.48,551.41,355.81,544.45,355.81z"/>
				<path fill="#FFFFFF" d="M545,384.84c0.34,0.81-0.03,1.74-0.83,2.08c-0.2,0.09-0.41,0.13-0.62,0.13c-0.61,0-1.2-0.36-1.46-0.96
					l-2.87-6.76c-0.04-0.09-0.07-0.19-0.09-0.29H528.1l9.77,21.1c0.37,0.8,0.02,1.74-0.77,2.11c-0.22,0.1-0.44,0.15-0.67,0.15
					c-0.6,0-1.17-0.34-1.44-0.92l-10.31-22.27c-0.03-0.06-0.04-0.11-0.06-0.17h-10.55l17.86,37.73c0.79,1.68,3.22,1.68,4.01,0
					l17.86-37.73h-11.28L545,384.84z"/>
			</g>
			<path fill="#FFFFFF" d="M533.94,497.75c-7.89,0-14.29,6.4-14.29,14.29c0,7.89,6.4,14.29,14.29,14.29
				c7.89,0,14.29-6.4,14.29-14.29C548.24,504.15,541.84,497.75,533.94,497.75z M543.96,503.47c-0.37,1.09-0.44,2.23-0.54,3.35
				c-0.14,1.53-1.03,2.53-2.27,3.28c-0.74,0.46-1.56,0.71-2.42,0.82c-0.57,0.07-0.97,0.32-1.19,0.85c-0.41,1-0.85,1.98-1.21,3
				c-0.8,2.3-1.33,4.66-1.66,7.08c-0.1,0.7-0.24,1.4-0.38,2.1c-0.09,0.44-0.23,0.52-0.68,0.53c-0.3,0-0.59,0-0.89-0.01
				c-0.25-0.01-0.4-0.12-0.46-0.39c-0.34-1.55-0.68-3.1-1.05-4.64c-0.66-2.72-1.39-5.42-2.43-8.02c-1.05-2.65-2.59-5-4.49-7.12
				c-0.14-0.15-0.26-0.31-0.38-0.47c-0.02-0.03-0.01-0.07-0.03-0.15c0.13,0.02,0.24,0.01,0.33,0.05c0.47,0.25,0.99,0.45,1.4,0.77
				c2.19,1.71,3.88,3.8,4.91,6.42c0.79,2,1.33,4.07,1.88,6.14c0.2,0.74,0.41,1.48,0.62,2.21c0.04,0.14,0.1,0.27,0.19,0.48
				c0.09-0.23,0.17-0.38,0.22-0.54c0.57-1.71,1.13-3.41,1.72-5.12c0.56-1.63,1.24-3.2,2.11-4.69c0.51-0.87,1.08-1.7,1.78-2.44
				c0.19-0.2,0.35-0.42,0.53-0.63c-0.01-0.02-0.03-0.04-0.04-0.07c-0.11,0.02-0.23,0.02-0.33,0.08c-0.43,0.25-0.9,0.45-1.27,0.77
				c-0.91,0.81-1.67,1.75-2.15,2.89c-0.02,0.05-0.05,0.1-0.08,0.14c-0.01,0.02-0.04,0.03-0.13,0.09c-0.04-0.3-0.11-0.57-0.12-0.83
				c-0.05-2.18,1.41-4.79,4.02-5.3c1.41-0.28,2.81-0.62,4.21-0.94C543.99,503.1,544.07,503.16,543.96,503.47z"/>
		</g>
		<g>
			<path fill="#F29872" d="M248.67,531.56C248.67,531.56,248.67,531.56,248.67,531.56c-6.18,0-13.02-3.3-15.83-10.58
				c-4.92,6.05-12.44,7.08-18.32,5.17c-5.88-1.91-11.36-7.16-11.78-14.95c-6.55,4.24-14.02,2.89-19.02-0.74
				c-5-3.63-8.59-10.32-6.59-17.86c-7.54,2.01-14.23-1.58-17.86-6.59c-3.63-5-4.98-12.47-0.74-19.02
				c-7.79-0.42-13.04-5.9-14.95-11.78c-1.91-5.88-0.88-13.4,5.17-18.32c-7.28-2.81-10.58-9.64-10.58-15.83
				c0-6.18,3.3-13.02,10.58-15.83c-6.05-4.92-7.08-12.44-5.17-18.32c1.91-5.88,7.16-11.36,14.95-11.78
				c-4.24-6.55-2.89-14.02,0.74-19.02s10.32-8.59,17.86-6.59c-2.01-7.54,1.58-14.23,6.59-17.86c5-3.64,12.47-4.98,19.02-0.74
				c0.42-7.79,5.9-13.04,11.78-14.95c5.88-1.91,13.4-0.88,18.32,5.17c2.81-7.28,9.64-10.58,15.83-10.58
				c6.18,0,13.02,3.3,15.83,10.58c4.92-6.05,12.44-7.08,18.32-5.17s11.36,7.16,11.78,14.95c6.55-4.24,14.02-2.89,19.02,0.74
				c5,3.63,8.59,10.32,6.59,17.86c7.54-2.01,14.23,1.58,17.86,6.59c3.63,5,4.98,12.47,0.74,19.02c7.79,0.42,13.04,5.9,14.95,11.78
				c1.91,5.88,0.88,13.4-5.17,18.32c7.28,2.81,10.58,9.64,10.58,15.83c0,6.18-3.3,13.02-10.58,15.83
				c6.05,4.92,7.08,12.44,5.17,18.32c-1.91,5.88-7.16,11.36-14.95,11.78c4.24,6.55,2.89,14.02-0.74,19.02
				c-3.63,5-10.33,8.59-17.86,6.59c2.01,7.54-1.58,14.23-6.59,17.86c-5,3.63-12.47,4.98-19.02,0.74
				c-0.42,7.79-5.9,13.04-11.78,14.95c-5.88,1.91-13.4,0.88-18.32-5.17C261.69,528.26,254.85,531.56,248.67,531.56z M232.33,516.04
				c0.61-1.13,2.3-0.86,2.53,0.4l0.1,0.57c1.44,7.89,7.92,11.43,13.71,11.43c5.78,0,12.26-3.53,13.71-11.43l0.1-0.57
				c0.23-1.26,1.92-1.53,2.53-0.4l0.28,0.51c3.81,7.06,11.07,8.42,16.57,6.63c5.5-1.79,10.57-7.15,9.5-15.1l-0.08-0.58
				c-0.17-1.27,1.35-2.05,2.28-1.16l0.42,0.4c5.81,5.54,13.13,4.59,17.81,1.19c4.68-3.4,7.84-10.07,4.37-17.3l-0.25-0.52
				c-0.55-1.16,0.65-2.36,1.81-1.81l0.52,0.25c7.24,3.47,13.9,0.31,17.3-4.37c3.4-4.68,4.35-12-1.19-17.81l-0.4-0.42
				c-0.88-0.93-0.11-2.45,1.16-2.28l0.58,0.08c7.96,1.07,13.32-4.01,15.1-9.5c1.79-5.5,0.43-12.75-6.63-16.57l-0.51-0.28
				c-1.13-0.61-0.86-2.3,0.4-2.53l0.57-0.1c7.89-1.44,11.43-7.92,11.43-13.71c0-5.78-3.53-12.26-11.43-13.71l-0.57-0.1
				c-1.26-0.23-1.53-1.92-0.4-2.53l0.51-0.28c7.06-3.81,8.42-11.07,6.63-16.57c-1.79-5.5-7.15-10.57-15.1-9.5l-0.58,0.08
				c-1.27,0.17-2.05-1.35-1.16-2.28l0.4-0.42c5.54-5.81,4.59-13.13,1.19-17.81c-3.4-4.68-10.06-7.84-17.3-4.37l-0.52,0.25
				c-1.16,0.55-2.36-0.65-1.81-1.81l0.25-0.52c3.47-7.23,0.31-13.9-4.37-17.3c-4.68-3.4-12-4.35-17.81,1.19l-0.42,0.4
				c-0.93,0.88-2.45,0.11-2.28-1.16l0.08-0.58c1.07-7.95-4.01-13.32-9.5-15.1c-5.5-1.79-12.75-0.43-16.57,6.63l-0.28,0.51
				c-0.61,1.13-2.3,0.86-2.53-0.4l-0.1-0.57c-1.44-7.89-7.92-11.43-13.71-11.43c-5.78,0-12.26,3.53-13.71,11.43l-0.1,0.57
				c-0.23,1.26-1.92,1.53-2.53,0.4l-0.28-0.51c-3.81-7.06-11.07-8.42-16.57-6.63c-5.5,1.79-10.57,7.15-9.5,15.1l0.08,0.58
				c0.17,1.27-1.35,2.05-2.28,1.16l-0.42-0.4c-5.81-5.54-13.13-4.59-17.81-1.19c-4.68,3.4-7.84,10.07-4.37,17.3l0.25,0.52
				c0.55,1.16-0.65,2.36-1.81,1.81l-0.52-0.25c-7.24-3.47-13.9-0.31-17.3,4.37c-3.4,4.68-4.35,12,1.19,17.81l0.4,0.42
				c0.88,0.93,0.11,2.45-1.16,2.28l-0.58-0.08c-7.95-1.07-13.32,4.01-15.1,9.5c-1.79,5.5-0.43,12.75,6.63,16.57l0.51,0.28
				c1.13,0.61,0.86,2.3-0.4,2.53l-0.57,0.1c-7.89,1.44-11.43,7.92-11.43,13.71c0,5.78,3.53,12.26,11.43,13.71l0.57,0.1
				c1.26,0.23,1.53,1.92,0.4,2.53l-0.51,0.28c-7.06,3.81-8.42,11.07-6.63,16.57c1.79,5.5,7.15,10.57,15.1,9.5l0.58-0.08
				c1.27-0.17,2.05,1.35,1.16,2.28l-0.4,0.42c-5.54,5.81-4.59,13.13-1.19,17.81c3.4,4.68,10.07,7.84,17.3,4.37l0.52-0.25
				c1.16-0.55,2.36,0.65,1.81,1.81l-0.25,0.52c-3.47,7.23-0.31,13.9,4.37,17.3c4.68,3.4,12,4.35,17.81-1.19l0.42-0.4
				c0.93-0.88,2.45-0.11,2.28,1.16l-0.08,0.58c-1.07,7.95,4.01,13.32,9.5,15.1c5.5,1.79,12.76,0.43,16.57-6.63L232.33,516.04z"/>
			<g>
				<g>
					<path fill="#F29872" d="M210.37,433.73h3.9c3.64,0,5.63,1.91,5.63,5.37v2.91c0,1.95-0.96,3.42-2.17,4.2
						c1.73,0.59,2.83,2.32,2.83,4.6v3.02c0,3.31-2.28,5.67-5.96,5.67h-4.23c-1.14,0-1.95-0.81-1.95-1.95v-21.86
						C208.42,434.54,209.23,433.73,210.37,433.73z M214.01,444.58c1.25,0,2.02-0.81,2.02-2.17v-2.98c0-1.58-0.59-2.28-2.17-2.28
						h-1.58v7.43H214.01z M214.19,456.07c1.73,0,2.5-0.88,2.5-2.5v-3.02c0-1.66-0.85-2.54-2.39-2.54h-2.02v8.06H214.19z"/>
					<path fill="#F29872" d="M228.92,433.21c3.75,0,6.11,2.43,6.11,6.15v14.5c0,3.72-2.36,6.15-6.11,6.15
						c-3.75,0-6.11-2.43-6.11-6.15v-14.5C222.81,435.64,225.16,433.21,228.92,433.21z M228.92,456.66c1.36,0,2.21-0.92,2.21-2.25
						v-15.6c0-1.32-0.85-2.25-2.21-2.25s-2.21,0.92-2.21,2.25v15.6C226.71,455.74,227.55,456.66,228.92,456.66z"/>
					<path fill="#F29872" d="M237.01,457.76c0-0.37,0.11-0.63,0.18-0.85l7.29-19.73h-5.59c-1.03,0-1.73-0.74-1.73-1.73
						s0.7-1.73,1.73-1.73h8.21c1.03,0,1.73,0.74,1.73,1.73c0,0.37-0.11,0.63-0.18,0.88l-7.29,19.69h5.74c1.03,0,1.73,0.74,1.73,1.73
						s-0.7,1.73-1.73,1.73h-8.39C237.68,459.49,237.01,458.75,237.01,457.76z M241.14,426.99h0.81l0.96,2.21l0.96-2.21h0.81
						c0.96,0,1.55,0.66,1.55,1.47c0,0.33-0.11,0.66-0.33,0.99l-0.85,1.29c-0.59,0.88-0.96,1.44-2.13,1.44s-1.55-0.55-2.13-1.44
						l-0.85-1.29c-0.22-0.33-0.33-0.66-0.33-0.99C239.59,427.66,240.18,426.99,241.14,426.99z"/>
					<path fill="#F29872" d="M252.29,451.1c1.18,0,1.88,0.74,1.88,1.88v0.88c0,1.62,0.52,2.87,2.17,2.87c1.51,0,2.13-1.1,2.13-2.91
						c0-2.76-1.51-4.2-3.24-5.78c-2.69-2.43-4.93-4.89-4.93-8.58c0-4.16,2.25-6.26,5.82-6.26c3.42,0,5.67,2.21,5.67,5.78v1.29
						c0,1.1-0.74,1.8-1.84,1.8c-1.07,0-1.84-0.7-1.84-1.8v-1.18c0-1.58-0.66-2.54-1.99-2.54c-1.44,0-1.99,1.03-1.99,2.61
						c0,2.39,1.33,3.83,3.02,5.41c2.1,1.99,5.15,4.78,5.15,8.87c0,3.83-2.36,6.55-6.04,6.55c-3.64,0-5.78-2.58-5.78-6v-1.03
						C250.48,451.73,251.18,451.1,252.29,451.1z"/>
					<path fill="#F29872" d="M268.78,446.61v11.3c0,1.14-0.81,1.95-1.95,1.95c-1.18,0-1.95-0.81-1.95-1.95v-22.6
						c0-1.14,0.77-1.95,1.95-1.95c1.14,0,1.95,0.81,1.95,1.95v10.71l4.34-11.41c0.33-0.88,0.88-1.25,1.8-1.25
						c0.96,0,1.88,0.59,1.88,1.73c0,0.26-0.07,0.55-0.18,0.88l-4.12,10.38l4.27,10.71c0.15,0.37,0.22,0.66,0.22,0.96
						c0,1.14-0.81,1.84-1.88,1.84c-0.99,0-1.55-0.55-1.88-1.4L268.78,446.61z"/>
					<path fill="#F29872" d="M288.54,433.36c1.14,0,1.95,0.74,1.95,1.77c0,0.33-0.07,0.59-0.15,0.77l-4.31,12v10.01
						c0,1.14-0.81,1.95-1.95,1.95s-1.95-0.81-1.95-1.95V447.9l-4.31-12c-0.07-0.18-0.15-0.52-0.15-0.77c0-1.03,0.81-1.77,1.95-1.77
						c1.07,0,1.66,0.59,1.91,1.44l2.36,7.84c0.07,0.26,0.15,0.55,0.18,0.81c0.04-0.26,0.11-0.55,0.18-0.81l2.36-7.84
						C286.88,433.95,287.47,433.36,288.54,433.36z M283.2,428.83c0.22-1.18,0.85-1.84,2.02-1.84c1.07,0,1.91,0.7,1.91,1.73
						c0,0.33-0.07,0.63-0.18,0.85l-1.14,2.61h-3.28L283.2,428.83z"/>
				</g>
				<g>
					<path fill="#F29872" d="M211.77,478.59v9.6c0,0.97-0.69,1.66-1.66,1.66c-1,0-1.66-0.69-1.66-1.66v-19.2
						c0-0.97,0.66-1.66,1.66-1.66c0.97,0,1.66,0.69,1.66,1.66v9.1l3.69-9.69c0.28-0.75,0.75-1.06,1.53-1.06
						c0.81,0,1.59,0.5,1.59,1.47c0,0.22-0.06,0.47-0.16,0.75l-3.5,8.82l3.63,9.1c0.12,0.31,0.19,0.56,0.19,0.81
						c0,0.97-0.69,1.56-1.59,1.56c-0.84,0-1.31-0.47-1.59-1.19L211.77,478.59z"/>
					<path fill="#F29872" d="M225.36,467.21c3.19,0,5.19,2.06,5.19,5.22v12.32c0,3.16-2,5.22-5.19,5.22c-3.19,0-5.19-2.06-5.19-5.22
						v-12.32C220.17,469.27,222.17,467.21,225.36,467.21z M225.36,487.12c1.16,0,1.88-0.78,1.88-1.91v-13.26
						c0-1.13-0.72-1.91-1.88-1.91s-1.88,0.78-1.88,1.91v13.26C223.49,486.34,224.21,487.12,225.36,487.12z"/>
					<path fill="#F29872" d="M236.55,480.9v7.29c0,0.97-0.69,1.66-1.66,1.66s-1.66-0.69-1.66-1.66V469.3c0-0.97,0.69-1.66,1.66-1.66
						h2.94c3.41,0,5.38,1.72,5.38,5.35v2.5c0,3.28-2.19,5.41-5.44,5.41H236.55z M237.68,477.96c1.41,0,2.22-0.84,2.22-2.34v-2.69
						c0-1.47-0.75-2.34-2.16-2.34h-1.19v7.38H237.68z"/>
					<path fill="#F29872" d="M246.9,467.64h6.25c0.88,0,1.47,0.63,1.47,1.47c0,0.88-0.59,1.47-1.47,1.47h-4.6v6.38h3.56
						c0.84,0,1.47,0.63,1.47,1.47c0,0.88-0.63,1.47-1.47,1.47h-3.56v6.69h4.63c0.88,0,1.47,0.63,1.47,1.47
						c0,0.84-0.59,1.47-1.47,1.47h-6.28c-0.97,0-1.66-0.69-1.66-1.66V469.3C245.24,468.33,245.93,467.64,246.9,467.64z"/>
					<path fill="#F29872" d="M266.22,472.49v1.66c0,0.97-0.63,1.59-1.56,1.59c-0.97,0-1.56-0.62-1.56-1.59v-2.19
						c0-1.28-0.69-1.91-1.78-1.91s-1.75,0.62-1.75,1.91v13.26c0,1.28,0.66,1.91,1.75,1.91s1.78-0.63,1.78-1.91v-2.19
						c0-0.97,0.59-1.59,1.56-1.59c0.94,0,1.56,0.63,1.56,1.59v1.66c0,3.19-1.72,5.28-4.94,5.28c-3.28,0-5.03-2.03-5.03-5.28v-12.19
						c0-3.25,1.75-5.28,5.03-5.28C264.5,467.21,266.22,469.3,266.22,472.49z M259.72,461.92h0.69l0.81,1.88l0.81-1.88h0.69
						c0.81,0,1.31,0.56,1.31,1.25c0,0.28-0.09,0.56-0.28,0.84l-0.72,1.09c-0.5,0.75-0.81,1.22-1.81,1.22s-1.31-0.47-1.81-1.22
						l-0.72-1.09c-0.19-0.28-0.28-0.56-0.28-0.84C258.4,462.49,258.9,461.92,259.72,461.92z"/>
					<path fill="#F29872" d="M270.31,467.64h6.25c0.88,0,1.47,0.63,1.47,1.47c0,0.88-0.59,1.47-1.47,1.47h-4.6v6.38h3.56
						c0.84,0,1.47,0.63,1.47,1.47c0,0.88-0.63,1.47-1.47,1.47h-3.56v6.69h4.63c0.88,0,1.47,0.63,1.47,1.47
						c0,0.84-0.59,1.47-1.47,1.47h-6.28c-0.97,0-1.66-0.69-1.66-1.66V469.3C268.65,468.33,269.34,467.64,270.31,467.64z"/>
					<path fill="#F29872" d="M283.41,478.59v9.6c0,0.97-0.69,1.66-1.66,1.66c-1,0-1.66-0.69-1.66-1.66v-19.2
						c0-0.97,0.66-1.66,1.66-1.66c0.97,0,1.66,0.69,1.66,1.66v9.1l3.69-9.69c0.28-0.75,0.75-1.06,1.53-1.06
						c0.81,0,1.59,0.5,1.59,1.47c0,0.22-0.06,0.47-0.16,0.75l-3.5,8.82l3.63,9.1c0.12,0.31,0.19,0.56,0.19,0.81
						c0,0.97-0.69,1.56-1.59,1.56c-0.84,0-1.31-0.47-1.59-1.19L283.41,478.59z"/>
				</g>
			</g>
			<g>
				<path fill="#F29872" d="M238.4,354.51c4.11,0,7.86,1.57,10.7,4.13c2.73-2.28,6.24-3.66,10.07-3.66c0.63,0,1.25,0.04,1.86,0.11
					c0.15-0.79,0.24-1.61,0.24-2.44c0-6.99-5.65-12.66-12.61-12.66s-12.61,5.67-12.61,12.66c0,0.68,0.06,1.35,0.16,2.01
					C236.93,354.57,237.66,354.51,238.4,354.51z"/>
				<path fill="#F29872" d="M243.4,370.83c0-3.75,1.31-7.2,3.49-9.92c-2.26-2-5.23-3.22-8.49-3.22c-7.09,0-12.85,5.78-12.85,12.9
					c0,2.85,0.92,5.49,2.49,7.63h17.19C244.06,376.01,243.4,373.5,243.4,370.83z"/>
				<path fill="#F29872" d="M259.17,358.16c-6.96,0-12.61,5.67-12.61,12.66c0,2.76,0.88,5.31,2.37,7.39h20.47
					c1.49-2.08,2.37-4.63,2.37-7.39C271.78,363.83,266.13,358.16,259.17,358.16z"/>
				<path fill="#F29872" d="M259.72,387.2c0.34,0.81-0.03,1.74-0.83,2.08c-0.2,0.09-0.41,0.13-0.62,0.13c-0.61,0-1.2-0.36-1.46-0.96
					l-2.87-6.76c-0.04-0.09-0.07-0.19-0.09-0.29h-11.02l9.77,21.1c0.37,0.8,0.02,1.74-0.77,2.11c-0.22,0.1-0.44,0.15-0.67,0.15
					c-0.6,0-1.17-0.34-1.44-0.92l-10.31-22.27c-0.03-0.06-0.04-0.11-0.06-0.17H228.8l17.86,37.73c0.79,1.68,3.22,1.68,4.01,0
					l17.86-37.73h-11.28L259.72,387.2z"/>
			</g>
			<path fill="#F29872" d="M248.67,500.11c-7.89,0-14.29,6.4-14.29,14.29c0,7.89,6.4,14.29,14.29,14.29
				c7.89,0,14.29-6.4,14.29-14.29C262.96,506.51,256.56,500.11,248.67,500.11z M258.68,505.83c-0.37,1.09-0.44,2.23-0.54,3.35
				c-0.14,1.53-1.03,2.53-2.27,3.28c-0.74,0.46-1.56,0.71-2.42,0.82c-0.57,0.07-0.97,0.32-1.19,0.85c-0.41,1-0.85,1.98-1.21,3
				c-0.8,2.3-1.33,4.66-1.66,7.08c-0.1,0.7-0.24,1.4-0.38,2.1c-0.09,0.44-0.23,0.52-0.68,0.53c-0.3,0-0.59,0-0.89-0.01
				c-0.25-0.01-0.4-0.12-0.46-0.39c-0.34-1.55-0.68-3.1-1.05-4.64c-0.66-2.72-1.39-5.42-2.43-8.02c-1.05-2.65-2.59-5-4.49-7.12
				c-0.14-0.15-0.26-0.31-0.38-0.47c-0.02-0.03-0.01-0.07-0.03-0.15c0.13,0.02,0.24,0.01,0.33,0.05c0.47,0.25,0.99,0.45,1.4,0.77
				c2.19,1.71,3.88,3.8,4.91,6.42c0.79,2,1.33,4.07,1.88,6.14c0.2,0.74,0.41,1.48,0.62,2.21c0.04,0.14,0.1,0.27,0.19,0.48
				c0.09-0.23,0.17-0.38,0.22-0.54c0.57-1.71,1.13-3.41,1.72-5.12c0.56-1.63,1.24-3.2,2.11-4.69c0.51-0.87,1.08-1.7,1.78-2.44
				c0.19-0.2,0.35-0.42,0.53-0.63c-0.01-0.02-0.03-0.04-0.04-0.07c-0.11,0.02-0.23,0.02-0.33,0.08c-0.43,0.25-0.9,0.45-1.27,0.77
				c-0.91,0.81-1.67,1.75-2.15,2.89c-0.02,0.05-0.05,0.1-0.08,0.14c-0.01,0.02-0.04,0.03-0.13,0.09c-0.04-0.3-0.11-0.57-0.12-0.83
				c-0.05-2.18,1.41-4.79,4.02-5.3c1.41-0.28,2.81-0.62,4.21-0.94C258.72,505.46,258.79,505.52,258.68,505.83z"/>
		</g>
	</g>
	<g>
		<rect x="1152.71" y="282.18" fill="#97B7E1" width="268.31" height="268.31"/>
		<g>
			<path fill="#97B7E1" d="M1001.59,519.77C1001.59,519.77,1001.59,519.77,1001.59,519.77c-6.18,0-13.02-3.3-15.83-10.58
				c-4.92,6.05-12.44,7.08-18.32,5.17c-5.88-1.91-11.36-7.16-11.78-14.95c-6.55,4.24-14.02,2.89-19.02-0.74
				c-5-3.63-8.59-10.32-6.59-17.86c-7.54,2.01-14.23-1.58-17.86-6.59c-3.63-5-4.98-12.47-0.74-19.02
				c-7.79-0.42-13.04-5.9-14.95-11.78s-0.88-13.4,5.17-18.32c-7.28-2.81-10.58-9.64-10.58-15.83c0-6.18,3.3-13.02,10.58-15.83
				c-6.05-4.92-7.08-12.44-5.17-18.32c1.91-5.88,7.16-11.36,14.95-11.78c-4.24-6.55-2.89-14.02,0.74-19.02
				c3.63-5,10.32-8.59,17.86-6.59c-2.01-7.54,1.58-14.23,6.59-17.86c5-3.64,12.47-4.98,19.02-0.74c0.42-7.79,5.9-13.04,11.78-14.95
				c5.88-1.91,13.4-0.88,18.32,5.17c2.81-7.28,9.64-10.58,15.83-10.58c6.18,0,13.02,3.3,15.83,10.58
				c4.92-6.05,12.44-7.08,18.32-5.17c5.88,1.91,11.36,7.16,11.78,14.95c6.55-4.24,14.02-2.89,19.02,0.74
				c5,3.63,8.59,10.32,6.59,17.86c7.54-2.01,14.23,1.58,17.86,6.59c3.63,5,4.98,12.47,0.74,19.02c7.79,0.42,13.04,5.9,14.95,11.78
				c1.91,5.88,0.88,13.4-5.17,18.32c7.28,2.81,10.58,9.64,10.58,15.83c0,6.18-3.3,13.02-10.58,15.83
				c6.05,4.92,7.08,12.44,5.17,18.32c-1.91,5.88-7.16,11.36-14.95,11.78c4.24,6.55,2.89,14.02-0.74,19.02
				c-3.63,5-10.33,8.59-17.86,6.59c2.01,7.54-1.58,14.23-6.59,17.86c-5,3.63-12.47,4.98-19.02,0.74
				c-0.42,7.79-5.9,13.04-11.78,14.95c-5.88,1.91-13.4,0.88-18.32-5.17C1014.61,516.47,1007.77,519.77,1001.59,519.77z
				 M985.25,504.25c0.61-1.13,2.3-0.86,2.53,0.4l0.1,0.57c1.44,7.89,7.92,11.43,13.71,11.43c5.78,0,12.26-3.53,13.71-11.43l0.1-0.57
				c0.23-1.26,1.92-1.53,2.53-0.4l0.28,0.51c3.81,7.06,11.07,8.42,16.57,6.63c5.5-1.79,10.57-7.15,9.5-15.1l-0.08-0.58
				c-0.17-1.27,1.35-2.05,2.28-1.16l0.42,0.4c5.81,5.54,13.13,4.59,17.81,1.19c4.68-3.4,7.84-10.07,4.37-17.3l-0.25-0.52
				c-0.55-1.16,0.65-2.36,1.81-1.81l0.52,0.25c7.24,3.47,13.9,0.31,17.3-4.37c3.4-4.68,4.35-12-1.19-17.81l-0.4-0.42
				c-0.88-0.93-0.11-2.45,1.16-2.28l0.58,0.08c7.96,1.07,13.32-4.01,15.1-9.5c1.79-5.5,0.43-12.75-6.63-16.57l-0.51-0.28
				c-1.13-0.61-0.86-2.3,0.4-2.53l0.57-0.1c7.89-1.44,11.43-7.92,11.43-13.71s-3.53-12.26-11.43-13.71l-0.57-0.1
				c-1.26-0.23-1.53-1.92-0.4-2.53l0.51-0.28c7.06-3.81,8.42-11.07,6.63-16.57c-1.79-5.5-7.15-10.57-15.1-9.5l-0.58,0.08
				c-1.27,0.17-2.05-1.35-1.16-2.28l0.4-0.42c5.54-5.81,4.59-13.13,1.19-17.81c-3.4-4.68-10.06-7.84-17.3-4.37l-0.52,0.25
				c-1.16,0.55-2.36-0.65-1.81-1.81l0.25-0.52c3.47-7.23,0.31-13.9-4.37-17.3c-4.68-3.4-12-4.35-17.81,1.19l-0.42,0.4
				c-0.93,0.88-2.45,0.11-2.28-1.16l0.08-0.58c1.07-7.95-4.01-13.32-9.5-15.1c-5.5-1.79-12.75-0.43-16.57,6.63l-0.28,0.51
				c-0.61,1.13-2.3,0.86-2.53-0.4l-0.1-0.57c-1.44-7.89-7.92-11.43-13.71-11.43c-5.78,0-12.26,3.53-13.71,11.43l-0.1,0.57
				c-0.23,1.26-1.92,1.53-2.53,0.4l-0.28-0.51c-3.81-7.06-11.07-8.42-16.57-6.63c-5.5,1.79-10.57,7.15-9.5,15.1l0.08,0.58
				c0.17,1.27-1.35,2.05-2.28,1.16l-0.42-0.4c-5.81-5.54-13.13-4.59-17.81-1.19c-4.68,3.4-7.84,10.07-4.37,17.3l0.25,0.52
				c0.55,1.16-0.65,2.36-1.81,1.81l-0.52-0.25c-7.24-3.47-13.9-0.31-17.3,4.37c-3.4,4.68-4.35,12,1.19,17.81l0.4,0.42
				c0.88,0.93,0.11,2.45-1.16,2.28l-0.58-0.08c-7.95-1.07-13.32,4.01-15.1,9.5c-1.79,5.5-0.43,12.75,6.63,16.57l0.51,0.28
				c1.13,0.61,0.86,2.3-0.4,2.53l-0.57,0.1c-7.89,1.44-11.43,7.92-11.43,13.71s3.53,12.26,11.43,13.71l0.57,0.1
				c1.26,0.23,1.53,1.92,0.4,2.53l-0.51,0.28c-7.06,3.81-8.42,11.07-6.63,16.57s7.15,10.57,15.1,9.5l0.58-0.08
				c1.27-0.17,2.05,1.35,1.16,2.28l-0.4,0.42c-5.54,5.81-4.59,13.13-1.19,17.81c3.4,4.68,10.07,7.84,17.3,4.37l0.52-0.25
				c1.16-0.55,2.36,0.65,1.81,1.81l-0.25,0.52c-3.47,7.23-0.31,13.9,4.37,17.3c4.68,3.4,12,4.35,17.81-1.19l0.42-0.4
				c0.93-0.88,2.45-0.11,2.28,1.16l-0.08,0.58c-1.07,7.95,4.01,13.32,9.5,15.1c5.5,1.79,12.76,0.43,16.57-6.63L985.25,504.25z"/>
			<g>
				<g>
					<path fill="#97B7E1" d="M963.29,421.94h3.9c3.64,0,5.63,1.91,5.63,5.37v2.91c0,1.95-0.96,3.42-2.17,4.2
						c1.73,0.59,2.83,2.32,2.83,4.6v3.02c0,3.31-2.28,5.67-5.96,5.67h-4.23c-1.14,0-1.95-0.81-1.95-1.95v-21.86
						C961.34,422.75,962.15,421.94,963.29,421.94z M966.93,432.79c1.25,0,2.02-0.81,2.02-2.17v-2.98c0-1.58-0.59-2.28-2.17-2.28
						h-1.58v7.43H966.93z M967.12,444.28c1.73,0,2.5-0.88,2.5-2.5v-3.02c0-1.66-0.85-2.54-2.39-2.54h-2.02v8.06H967.12z"/>
					<path fill="#97B7E1" d="M981.84,421.42c3.75,0,6.11,2.43,6.11,6.15v14.5c0,3.72-2.36,6.15-6.11,6.15s-6.11-2.43-6.11-6.15
						v-14.5C975.73,423.85,978.09,421.42,981.84,421.42z M981.84,444.86c1.36,0,2.21-0.92,2.21-2.25v-15.6
						c0-1.32-0.85-2.25-2.21-2.25c-1.36,0-2.21,0.92-2.21,2.25v15.6C979.63,443.94,980.48,444.86,981.84,444.86z"/>
					<path fill="#97B7E1" d="M989.94,445.97c0-0.37,0.11-0.63,0.18-0.85l7.29-19.73h-5.59c-1.03,0-1.73-0.74-1.73-1.73
						s0.7-1.73,1.73-1.73h8.21c1.03,0,1.73,0.74,1.73,1.73c0,0.37-0.11,0.63-0.18,0.88l-7.29,19.69h5.74c1.03,0,1.73,0.74,1.73,1.73
						s-0.7,1.73-1.73,1.73h-8.39C990.6,447.7,989.94,446.96,989.94,445.97z M994.06,415.2h0.81l0.96,2.21l0.96-2.21h0.81
						c0.96,0,1.55,0.66,1.55,1.47c0,0.33-0.11,0.66-0.33,0.99l-0.85,1.29c-0.59,0.88-0.96,1.44-2.13,1.44s-1.55-0.55-2.13-1.44
						l-0.85-1.29c-0.22-0.33-0.33-0.66-0.33-0.99C992.51,415.86,993.1,415.2,994.06,415.2z"/>
					<path fill="#97B7E1" d="M1005.21,439.31c1.18,0,1.88,0.74,1.88,1.88v0.88c0,1.62,0.52,2.87,2.17,2.87
						c1.51,0,2.13-1.1,2.13-2.91c0-2.76-1.51-4.2-3.24-5.78c-2.69-2.43-4.93-4.89-4.93-8.58c0-4.16,2.25-6.26,5.82-6.26
						c3.42,0,5.67,2.21,5.67,5.78v1.29c0,1.1-0.74,1.8-1.84,1.8c-1.07,0-1.84-0.7-1.84-1.8v-1.18c0-1.58-0.66-2.54-1.99-2.54
						c-1.44,0-1.99,1.03-1.99,2.61c0,2.39,1.32,3.83,3.02,5.41c2.1,1.99,5.15,4.78,5.15,8.87c0,3.83-2.36,6.55-6.04,6.55
						c-3.64,0-5.78-2.58-5.78-6v-1.03C1003.41,439.93,1004.11,439.31,1005.21,439.31z"/>
					<path fill="#97B7E1" d="M1021.7,434.82v11.3c0,1.14-0.81,1.95-1.95,1.95c-1.18,0-1.95-0.81-1.95-1.95v-22.6
						c0-1.14,0.77-1.95,1.95-1.95c1.14,0,1.95,0.81,1.95,1.95v10.71l4.34-11.41c0.33-0.88,0.88-1.25,1.8-1.25
						c0.96,0,1.88,0.59,1.88,1.73c0,0.26-0.07,0.55-0.18,0.88l-4.12,10.38l4.27,10.71c0.15,0.37,0.22,0.66,0.22,0.96
						c0,1.14-0.81,1.84-1.88,1.84c-0.99,0-1.55-0.55-1.88-1.4L1021.7,434.82z"/>
					<path fill="#97B7E1" d="M1041.46,421.57c1.14,0,1.95,0.74,1.95,1.77c0,0.33-0.07,0.59-0.15,0.77l-4.31,12v10.01
						c0,1.14-0.81,1.95-1.95,1.95s-1.95-0.81-1.95-1.95v-10.01l-4.31-12c-0.07-0.18-0.15-0.52-0.15-0.77c0-1.03,0.81-1.77,1.95-1.77
						c1.07,0,1.66,0.59,1.91,1.44l2.36,7.84c0.07,0.26,0.15,0.55,0.18,0.81c0.04-0.26,0.11-0.55,0.18-0.81l2.36-7.84
						C1039.8,422.16,1040.39,421.57,1041.46,421.57z M1036.12,417.04c0.22-1.18,0.85-1.84,2.02-1.84c1.07,0,1.91,0.7,1.91,1.73
						c0,0.33-0.07,0.63-0.18,0.85l-1.14,2.61h-3.28L1036.12,417.04z"/>
				</g>
				<g>
					<path fill="#97B7E1" d="M964.69,466.8v9.6c0,0.97-0.69,1.66-1.66,1.66c-1,0-1.66-0.69-1.66-1.66v-19.2
						c0-0.97,0.66-1.66,1.66-1.66c0.97,0,1.66,0.69,1.66,1.66v9.1l3.69-9.69c0.28-0.75,0.75-1.06,1.53-1.06
						c0.81,0,1.59,0.5,1.59,1.47c0,0.22-0.06,0.47-0.16,0.75l-3.5,8.82l3.63,9.1c0.12,0.31,0.19,0.56,0.19,0.81
						c0,0.97-0.69,1.56-1.59,1.56c-0.84,0-1.31-0.47-1.59-1.19L964.69,466.8z"/>
					<path fill="#97B7E1" d="M978.29,455.42c3.19,0,5.19,2.06,5.19,5.22v12.32c0,3.16-2,5.22-5.19,5.22c-3.19,0-5.19-2.06-5.19-5.22
						v-12.32C973.1,457.48,975.1,455.42,978.29,455.42z M978.29,475.33c1.16,0,1.88-0.78,1.88-1.91v-13.26
						c0-1.13-0.72-1.91-1.88-1.91c-1.16,0-1.88,0.78-1.88,1.91v13.26C976.41,474.55,977.13,475.33,978.29,475.33z"/>
					<path fill="#97B7E1" d="M989.48,469.11v7.29c0,0.97-0.69,1.66-1.66,1.66c-0.97,0-1.66-0.69-1.66-1.66v-18.88
						c0-0.97,0.69-1.66,1.66-1.66h2.94c3.41,0,5.38,1.72,5.38,5.35v2.5c0,3.28-2.19,5.41-5.44,5.41H989.48z M990.6,466.17
						c1.41,0,2.22-0.84,2.22-2.34v-2.69c0-1.47-0.75-2.34-2.16-2.34h-1.19v7.38H990.6z"/>
					<path fill="#97B7E1" d="M999.82,455.86h6.25c0.88,0,1.47,0.63,1.47,1.47c0,0.88-0.59,1.47-1.47,1.47h-4.6v6.38h3.56
						c0.84,0,1.47,0.63,1.47,1.47c0,0.88-0.62,1.47-1.47,1.47h-3.56v6.69h4.63c0.88,0,1.47,0.63,1.47,1.47
						c0,0.84-0.59,1.47-1.47,1.47h-6.28c-0.97,0-1.66-0.69-1.66-1.66v-18.57C998.17,456.54,998.85,455.86,999.82,455.86z"/>
					<path fill="#97B7E1" d="M1019.14,460.7v1.66c0,0.97-0.63,1.59-1.56,1.59c-0.97,0-1.56-0.62-1.56-1.59v-2.19
						c0-1.28-0.69-1.91-1.78-1.91c-1.09,0-1.75,0.62-1.75,1.91v13.26c0,1.28,0.66,1.91,1.75,1.91c1.09,0,1.78-0.63,1.78-1.91v-2.19
						c0-0.97,0.59-1.59,1.56-1.59c0.94,0,1.56,0.63,1.56,1.59v1.66c0,3.19-1.72,5.28-4.94,5.28c-3.28,0-5.03-2.03-5.03-5.28V460.7
						c0-3.25,1.75-5.28,5.03-5.28C1017.42,455.42,1019.14,457.51,1019.14,460.7z M1012.64,450.13h0.69l0.81,1.88l0.81-1.88h0.69
						c0.81,0,1.31,0.56,1.31,1.25c0,0.28-0.09,0.56-0.28,0.84l-0.72,1.09c-0.5,0.75-0.81,1.22-1.81,1.22c-1,0-1.31-0.47-1.81-1.22
						l-0.72-1.09c-0.19-0.28-0.28-0.56-0.28-0.84C1011.33,450.7,1011.83,450.13,1012.64,450.13z"/>
					<path fill="#97B7E1" d="M1023.23,455.86h6.25c0.88,0,1.47,0.63,1.47,1.47c0,0.88-0.59,1.47-1.47,1.47h-4.6v6.38h3.56
						c0.84,0,1.47,0.63,1.47,1.47c0,0.88-0.62,1.47-1.47,1.47h-3.56v6.69h4.63c0.88,0,1.47,0.63,1.47,1.47
						c0,0.84-0.59,1.47-1.47,1.47h-6.28c-0.97,0-1.66-0.69-1.66-1.66v-18.57C1021.58,456.54,1022.26,455.86,1023.23,455.86z"/>
					<path fill="#97B7E1" d="M1036.33,466.8v9.6c0,0.97-0.69,1.66-1.66,1.66c-1,0-1.66-0.69-1.66-1.66v-19.2
						c0-0.97,0.66-1.66,1.66-1.66c0.97,0,1.66,0.69,1.66,1.66v9.1l3.69-9.69c0.28-0.75,0.75-1.06,1.53-1.06
						c0.81,0,1.59,0.5,1.59,1.47c0,0.22-0.06,0.47-0.16,0.75l-3.5,8.82l3.63,9.1c0.12,0.31,0.19,0.56,0.19,0.81
						c0,0.97-0.69,1.56-1.59,1.56c-0.84,0-1.31-0.47-1.59-1.19L1036.33,466.8z"/>
				</g>
			</g>
			<g>
				<path fill="#97B7E1" d="M991.32,342.72c4.11,0,7.86,1.57,10.7,4.13c2.73-2.28,6.24-3.66,10.07-3.66c0.63,0,1.25,0.04,1.86,0.11
					c0.15-0.79,0.24-1.61,0.24-2.44c0-6.99-5.65-12.66-12.61-12.66s-12.61,5.67-12.61,12.66c0,0.68,0.06,1.35,0.16,2.01
					C989.85,342.78,990.58,342.72,991.32,342.72z"/>
				<path fill="#97B7E1" d="M996.32,359.04c0-3.75,1.31-7.2,3.49-9.92c-2.26-2-5.23-3.22-8.49-3.22c-7.09,0-12.85,5.78-12.85,12.9
					c0,2.85,0.92,5.49,2.49,7.63h17.19C996.98,364.22,996.32,361.71,996.32,359.04z"/>
				<path fill="#97B7E1" d="M1012.09,346.37c-6.96,0-12.61,5.67-12.61,12.66c0,2.76,0.88,5.31,2.37,7.39h20.47
					c1.49-2.08,2.37-4.63,2.37-7.39C1024.7,352.04,1019.06,346.37,1012.09,346.37z"/>
				<path fill="#97B7E1" d="M1012.64,375.4c0.34,0.81-0.03,1.74-0.83,2.08c-0.2,0.09-0.41,0.13-0.62,0.13
					c-0.61,0-1.2-0.36-1.46-0.96l-2.87-6.76c-0.04-0.09-0.07-0.19-0.09-0.29h-11.02l9.77,21.1c0.37,0.8,0.02,1.74-0.77,2.11
					c-0.22,0.1-0.44,0.15-0.67,0.15c-0.6,0-1.17-0.34-1.44-0.92l-10.31-22.27c-0.03-0.06-0.04-0.11-0.06-0.17h-10.55l17.86,37.73
					c0.79,1.68,3.22,1.68,4.01,0l17.86-37.73h-11.28L1012.64,375.4z"/>
			</g>
			<path fill="#97B7E1" d="M1001.59,488.32c-7.89,0-14.29,6.4-14.29,14.29c0,7.89,6.4,14.29,14.29,14.29
				c7.89,0,14.29-6.4,14.29-14.29C1015.88,494.72,1009.48,488.32,1001.59,488.32z M1011.61,494.04c-0.37,1.09-0.44,2.23-0.54,3.35
				c-0.14,1.53-1.03,2.53-2.27,3.28c-0.74,0.46-1.56,0.71-2.42,0.82c-0.57,0.07-0.97,0.32-1.19,0.85c-0.41,1-0.85,1.98-1.21,3
				c-0.8,2.3-1.33,4.66-1.66,7.08c-0.1,0.7-0.24,1.4-0.38,2.1c-0.09,0.44-0.23,0.52-0.68,0.53c-0.3,0-0.59,0-0.89-0.01
				c-0.25-0.01-0.4-0.12-0.46-0.39c-0.34-1.55-0.68-3.1-1.05-4.64c-0.66-2.72-1.39-5.42-2.43-8.02c-1.05-2.65-2.59-5-4.49-7.12
				c-0.14-0.15-0.26-0.31-0.38-0.47c-0.02-0.03-0.01-0.07-0.03-0.15c0.13,0.02,0.24,0.01,0.33,0.05c0.47,0.25,0.99,0.45,1.4,0.77
				c2.19,1.71,3.88,3.8,4.91,6.42c0.79,2,1.33,4.07,1.88,6.14c0.2,0.74,0.41,1.48,0.62,2.21c0.04,0.14,0.1,0.27,0.19,0.48
				c0.09-0.23,0.17-0.38,0.22-0.54c0.57-1.71,1.13-3.41,1.72-5.12c0.56-1.63,1.24-3.2,2.11-4.69c0.51-0.87,1.08-1.7,1.78-2.44
				c0.19-0.2,0.35-0.42,0.53-0.63c-0.01-0.02-0.03-0.04-0.04-0.07c-0.11,0.02-0.23,0.02-0.33,0.08c-0.43,0.25-0.9,0.45-1.27,0.77
				c-0.91,0.81-1.67,1.75-2.15,2.89c-0.02,0.05-0.05,0.1-0.08,0.14c-0.01,0.02-0.04,0.03-0.13,0.09c-0.04-0.3-0.11-0.57-0.12-0.83
				c-0.05-2.18,1.41-4.79,4.02-5.3c1.41-0.28,2.81-0.62,4.21-0.94C1011.64,493.67,1011.71,493.73,1011.61,494.04z"/>
		</g>
		<g>
			<path fill="#FFFFFF" d="M1284.23,522.13C1284.23,522.13,1284.23,522.13,1284.23,522.13c-6.18,0-13.02-3.3-15.83-10.58
				c-4.92,6.05-12.44,7.08-18.32,5.17c-5.88-1.91-11.36-7.16-11.78-14.95c-6.55,4.24-14.02,2.89-19.02-0.74
				c-5-3.63-8.59-10.32-6.59-17.86c-7.54,2.01-14.23-1.58-17.86-6.59c-3.63-5-4.98-12.47-0.74-19.02
				c-7.79-0.42-13.04-5.9-14.95-11.78c-1.91-5.88-0.88-13.4,5.17-18.32c-7.28-2.81-10.58-9.64-10.58-15.83
				c0-6.18,3.3-13.02,10.58-15.83c-6.05-4.92-7.08-12.44-5.17-18.32c1.91-5.88,7.16-11.36,14.95-11.78
				c-4.24-6.55-2.89-14.02,0.74-19.02c3.63-5,10.32-8.59,17.86-6.59c-2.01-7.54,1.58-14.23,6.59-17.86c5-3.64,12.47-4.98,19.02-0.74
				c0.42-7.79,5.9-13.04,11.78-14.95c5.88-1.91,13.4-0.88,18.32,5.17c2.81-7.28,9.64-10.58,15.83-10.58
				c6.18,0,13.02,3.3,15.83,10.58c4.92-6.05,12.44-7.08,18.32-5.17c5.88,1.91,11.36,7.16,11.78,14.95
				c6.55-4.24,14.02-2.89,19.02,0.74c5,3.63,8.59,10.32,6.59,17.86c7.54-2.01,14.23,1.58,17.86,6.59c3.63,5,4.98,12.47,0.74,19.02
				c7.79,0.42,13.04,5.9,14.95,11.78c1.91,5.88,0.88,13.4-5.17,18.32c7.28,2.81,10.58,9.64,10.58,15.83
				c0,6.18-3.3,13.02-10.58,15.83c6.05,4.92,7.08,12.44,5.17,18.32c-1.91,5.88-7.16,11.36-14.95,11.78
				c4.24,6.55,2.89,14.02-0.74,19.02c-3.63,5-10.33,8.59-17.86,6.59c2.01,7.54-1.58,14.23-6.59,17.86c-5,3.63-12.47,4.98-19.02,0.74
				c-0.42,7.79-5.9,13.04-11.78,14.95c-5.88,1.91-13.4,0.88-18.32-5.17C1297.25,518.83,1290.41,522.13,1284.23,522.13z
				 M1267.89,506.61c0.61-1.13,2.3-0.86,2.53,0.4l0.1,0.57c1.44,7.89,7.92,11.43,13.71,11.43c5.78,0,12.26-3.53,13.71-11.43
				l0.1-0.57c0.23-1.26,1.92-1.53,2.53-0.4l0.28,0.51c3.81,7.06,11.07,8.42,16.57,6.63c5.5-1.79,10.57-7.15,9.5-15.1l-0.08-0.58
				c-0.17-1.27,1.35-2.05,2.28-1.16l0.42,0.4c5.81,5.54,13.13,4.59,17.81,1.19c4.68-3.4,7.84-10.07,4.37-17.3l-0.25-0.52
				c-0.55-1.16,0.65-2.36,1.81-1.81l0.52,0.25c7.24,3.47,13.9,0.31,17.3-4.37c3.4-4.68,4.35-12-1.19-17.81l-0.4-0.42
				c-0.88-0.93-0.11-2.45,1.16-2.28l0.58,0.08c7.96,1.07,13.32-4.01,15.1-9.5c1.79-5.5,0.43-12.75-6.63-16.57l-0.51-0.28
				c-1.13-0.61-0.86-2.3,0.4-2.53l0.57-0.1c7.89-1.44,11.43-7.92,11.43-13.71s-3.53-12.26-11.43-13.71l-0.57-0.1
				c-1.26-0.23-1.53-1.92-0.4-2.53l0.51-0.28c7.06-3.81,8.42-11.07,6.63-16.57c-1.79-5.5-7.15-10.57-15.1-9.5l-0.58,0.08
				c-1.27,0.17-2.05-1.35-1.16-2.28l0.4-0.42c5.54-5.81,4.59-13.13,1.19-17.81c-3.4-4.68-10.06-7.84-17.3-4.37l-0.52,0.25
				c-1.16,0.55-2.36-0.65-1.81-1.81l0.25-0.52c3.47-7.23,0.31-13.9-4.37-17.3c-4.68-3.4-12-4.35-17.81,1.19l-0.42,0.4
				c-0.93,0.88-2.45,0.11-2.28-1.16l0.08-0.58c1.07-7.95-4.01-13.32-9.5-15.1c-5.5-1.79-12.75-0.43-16.57,6.63l-0.28,0.51
				c-0.61,1.13-2.3,0.86-2.53-0.4l-0.1-0.57c-1.44-7.89-7.92-11.43-13.71-11.43c-5.78,0-12.26,3.53-13.71,11.43l-0.1,0.57
				c-0.23,1.26-1.92,1.53-2.53,0.4l-0.28-0.51c-3.81-7.06-11.07-8.42-16.57-6.63c-5.5,1.79-10.57,7.15-9.51,15.1l0.08,0.58
				c0.17,1.27-1.35,2.05-2.28,1.16l-0.42-0.4c-5.81-5.54-13.13-4.59-17.81-1.19c-4.68,3.4-7.84,10.07-4.37,17.3l0.25,0.52
				c0.55,1.16-0.65,2.36-1.81,1.81l-0.52-0.25c-7.24-3.47-13.9-0.31-17.3,4.37c-3.4,4.68-4.35,12,1.19,17.81l0.4,0.42
				c0.88,0.93,0.11,2.45-1.16,2.28l-0.58-0.08c-7.95-1.07-13.32,4.01-15.1,9.5c-1.79,5.5-0.43,12.75,6.63,16.57l0.51,0.28
				c1.13,0.61,0.86,2.3-0.4,2.53l-0.57,0.1c-7.89,1.44-11.43,7.92-11.43,13.71s3.53,12.26,11.43,13.71l0.57,0.1
				c1.26,0.23,1.53,1.92,0.4,2.53l-0.51,0.28c-7.06,3.81-8.42,11.07-6.63,16.57c1.79,5.5,7.15,10.57,15.1,9.5l0.58-0.08
				c1.27-0.17,2.05,1.35,1.16,2.28l-0.4,0.42c-5.54,5.81-4.59,13.13-1.19,17.81c3.4,4.68,10.07,7.84,17.3,4.37l0.52-0.25
				c1.16-0.55,2.36,0.65,1.81,1.81l-0.25,0.52c-3.47,7.23-0.31,13.9,4.37,17.3c4.68,3.4,12,4.35,17.81-1.19l0.42-0.4
				c0.93-0.88,2.45-0.11,2.28,1.16l-0.08,0.58c-1.07,7.95,4.01,13.32,9.51,15.1c5.5,1.79,12.76,0.43,16.57-6.63L1267.89,506.61z"/>
			<g>
				<g>
					<path fill="#FFFFFF" d="M1245.93,424.3h3.9c3.64,0,5.63,1.91,5.63,5.37v2.91c0,1.95-0.96,3.42-2.17,4.2
						c1.73,0.59,2.83,2.32,2.83,4.6v3.02c0,3.31-2.28,5.67-5.96,5.67h-4.23c-1.14,0-1.95-0.81-1.95-1.95v-21.86
						C1243.98,425.1,1244.79,424.3,1245.93,424.3z M1249.57,435.15c1.25,0,2.02-0.81,2.02-2.17V430c0-1.58-0.59-2.28-2.17-2.28
						h-1.58v7.43H1249.57z M1249.76,446.64c1.73,0,2.5-0.88,2.5-2.5v-3.02c0-1.66-0.85-2.54-2.39-2.54h-2.02v8.06H1249.76z"/>
					<path fill="#FFFFFF" d="M1264.48,423.78c3.75,0,6.11,2.43,6.11,6.15v14.5c0,3.72-2.36,6.15-6.11,6.15s-6.11-2.43-6.11-6.15
						v-14.5C1258.37,426.21,1260.73,423.78,1264.48,423.78z M1264.48,447.22c1.36,0,2.21-0.92,2.21-2.25v-15.6
						c0-1.32-0.85-2.25-2.21-2.25c-1.36,0-2.21,0.92-2.21,2.25v15.6C1262.27,446.3,1263.12,447.22,1264.48,447.22z"/>
					<path fill="#FFFFFF" d="M1272.58,448.33c0-0.37,0.11-0.63,0.18-0.85l7.29-19.73h-5.59c-1.03,0-1.73-0.74-1.73-1.73
						s0.7-1.73,1.73-1.73h8.21c1.03,0,1.73,0.74,1.73,1.73c0,0.37-0.11,0.63-0.18,0.88l-7.29,19.69h5.74c1.03,0,1.73,0.74,1.73,1.73
						s-0.7,1.73-1.73,1.73h-8.39C1273.24,450.06,1272.58,449.32,1272.58,448.33z M1276.7,417.56h0.81l0.96,2.21l0.96-2.21h0.81
						c0.96,0,1.55,0.66,1.55,1.47c0,0.33-0.11,0.66-0.33,0.99l-0.85,1.29c-0.59,0.88-0.96,1.44-2.13,1.44s-1.55-0.55-2.13-1.44
						l-0.85-1.29c-0.22-0.33-0.33-0.66-0.33-0.99C1275.15,418.22,1275.74,417.56,1276.7,417.56z"/>
					<path fill="#FFFFFF" d="M1287.85,441.67c1.18,0,1.88,0.74,1.88,1.88v0.88c0,1.62,0.52,2.87,2.17,2.87
						c1.51,0,2.13-1.1,2.13-2.91c0-2.76-1.51-4.2-3.24-5.78c-2.69-2.43-4.93-4.89-4.93-8.58c0-4.16,2.25-6.26,5.82-6.26
						c3.42,0,5.67,2.21,5.67,5.78v1.29c0,1.1-0.74,1.8-1.84,1.8c-1.07,0-1.84-0.7-1.84-1.8v-1.18c0-1.58-0.66-2.54-1.99-2.54
						c-1.44,0-1.99,1.03-1.99,2.61c0,2.39,1.32,3.83,3.02,5.41c2.1,1.99,5.15,4.78,5.15,8.87c0,3.83-2.36,6.55-6.04,6.55
						c-3.64,0-5.78-2.58-5.78-6v-1.03C1286.05,442.29,1286.75,441.67,1287.85,441.67z"/>
					<path fill="#FFFFFF" d="M1304.34,437.18v11.3c0,1.14-0.81,1.95-1.95,1.95c-1.18,0-1.95-0.81-1.95-1.95v-22.6
						c0-1.14,0.77-1.95,1.95-1.95c1.14,0,1.95,0.81,1.95,1.95v10.71l4.34-11.41c0.33-0.88,0.88-1.25,1.8-1.25
						c0.96,0,1.88,0.59,1.88,1.73c0,0.26-0.07,0.55-0.18,0.88l-4.12,10.38l4.27,10.71c0.15,0.37,0.22,0.66,0.22,0.96
						c0,1.14-0.81,1.84-1.88,1.84c-0.99,0-1.55-0.55-1.88-1.4L1304.34,437.18z"/>
					<path fill="#FFFFFF" d="M1324.1,423.93c1.14,0,1.95,0.74,1.95,1.77c0,0.33-0.07,0.59-0.15,0.77l-4.31,12v10.01
						c0,1.14-0.81,1.95-1.95,1.95s-1.95-0.81-1.95-1.95v-10.01l-4.31-12c-0.07-0.18-0.15-0.52-0.15-0.77c0-1.03,0.81-1.77,1.95-1.77
						c1.07,0,1.66,0.59,1.91,1.44l2.36,7.84c0.07,0.26,0.15,0.55,0.18,0.81c0.04-0.26,0.11-0.55,0.18-0.81l2.36-7.84
						C1322.45,424.52,1323.03,423.93,1324.1,423.93z M1318.76,419.4c0.22-1.18,0.85-1.84,2.02-1.84c1.07,0,1.91,0.7,1.91,1.73
						c0,0.33-0.07,0.63-0.18,0.85l-1.14,2.61h-3.28L1318.76,419.4z"/>
				</g>
				<g>
					<path fill="#FFFFFF" d="M1247.33,469.16v9.6c0,0.97-0.69,1.66-1.66,1.66c-1,0-1.66-0.69-1.66-1.66v-19.2
						c0-0.97,0.66-1.66,1.66-1.66c0.97,0,1.66,0.69,1.66,1.66v9.1l3.69-9.69c0.28-0.75,0.75-1.06,1.53-1.06
						c0.81,0,1.59,0.5,1.59,1.47c0,0.22-0.06,0.47-0.16,0.75l-3.5,8.82l3.63,9.1c0.12,0.31,0.19,0.56,0.19,0.81
						c0,0.97-0.69,1.56-1.59,1.56c-0.84,0-1.31-0.47-1.59-1.19L1247.33,469.16z"/>
					<path fill="#FFFFFF" d="M1260.93,457.78c3.19,0,5.19,2.06,5.19,5.22v12.32c0,3.16-2,5.22-5.19,5.22
						c-3.19,0-5.19-2.06-5.19-5.22V463C1255.74,459.84,1257.74,457.78,1260.93,457.78z M1260.93,477.69c1.16,0,1.88-0.78,1.88-1.91
						v-13.26c0-1.13-0.72-1.91-1.88-1.91c-1.16,0-1.88,0.78-1.88,1.91v13.26C1259.05,476.91,1259.77,477.69,1260.93,477.69z"/>
					<path fill="#FFFFFF" d="M1272.12,471.47v7.29c0,0.97-0.69,1.66-1.66,1.66c-0.97,0-1.66-0.69-1.66-1.66v-18.88
						c0-0.97,0.69-1.66,1.66-1.66h2.94c3.41,0,5.38,1.72,5.38,5.35v2.5c0,3.28-2.19,5.41-5.44,5.41H1272.12z M1273.24,468.53
						c1.41,0,2.22-0.84,2.22-2.34v-2.69c0-1.47-0.75-2.34-2.16-2.34h-1.19v7.38H1273.24z"/>
					<path fill="#FFFFFF" d="M1282.46,458.21h6.25c0.88,0,1.47,0.63,1.47,1.47c0,0.88-0.59,1.47-1.47,1.47h-4.6v6.38h3.56
						c0.84,0,1.47,0.63,1.47,1.47c0,0.88-0.62,1.47-1.47,1.47h-3.56v6.69h4.63c0.88,0,1.47,0.63,1.47,1.47
						c0,0.84-0.59,1.47-1.47,1.47h-6.28c-0.97,0-1.66-0.69-1.66-1.66v-18.57C1280.81,458.9,1281.49,458.21,1282.46,458.21z"/>
					<path fill="#FFFFFF" d="M1301.78,463.06v1.66c0,0.97-0.63,1.59-1.56,1.59c-0.97,0-1.56-0.62-1.56-1.59v-2.19
						c0-1.28-0.69-1.91-1.78-1.91c-1.09,0-1.75,0.62-1.75,1.91v13.26c0,1.28,0.66,1.91,1.75,1.91c1.09,0,1.78-0.63,1.78-1.91v-2.19
						c0-0.97,0.59-1.59,1.56-1.59c0.94,0,1.56,0.63,1.56,1.59v1.66c0,3.19-1.72,5.28-4.94,5.28c-3.28,0-5.03-2.03-5.03-5.28v-12.19
						c0-3.25,1.75-5.28,5.03-5.28C1300.06,457.78,1301.78,459.87,1301.78,463.06z M1295.28,452.49h0.69l0.81,1.88l0.81-1.88h0.69
						c0.81,0,1.31,0.56,1.31,1.25c0,0.28-0.09,0.56-0.28,0.84l-0.72,1.09c-0.5,0.75-0.81,1.22-1.81,1.22c-1,0-1.31-0.47-1.81-1.22
						l-0.72-1.09c-0.19-0.28-0.28-0.56-0.28-0.84C1293.97,453.05,1294.47,452.49,1295.28,452.49z"/>
					<path fill="#FFFFFF" d="M1305.88,458.21h6.25c0.88,0,1.47,0.63,1.47,1.47c0,0.88-0.59,1.47-1.47,1.47h-4.6v6.38h3.56
						c0.84,0,1.47,0.63,1.47,1.47c0,0.88-0.62,1.47-1.47,1.47h-3.56v6.69h4.63c0.88,0,1.47,0.63,1.47,1.47
						c0,0.84-0.59,1.47-1.47,1.47h-6.28c-0.97,0-1.66-0.69-1.66-1.66v-18.57C1304.22,458.9,1304.91,458.21,1305.88,458.21z"/>
					<path fill="#FFFFFF" d="M1318.97,469.16v9.6c0,0.97-0.69,1.66-1.66,1.66c-1,0-1.66-0.69-1.66-1.66v-19.2
						c0-0.97,0.66-1.66,1.66-1.66c0.97,0,1.66,0.69,1.66,1.66v9.1l3.69-9.69c0.28-0.75,0.75-1.06,1.53-1.06
						c0.81,0,1.59,0.5,1.59,1.47c0,0.22-0.06,0.47-0.16,0.75l-3.5,8.82l3.63,9.1c0.12,0.31,0.19,0.56,0.19,0.81
						c0,0.97-0.69,1.56-1.59,1.56c-0.84,0-1.31-0.47-1.59-1.19L1318.97,469.16z"/>
				</g>
			</g>
			<g>
				<path fill="#FFFFFF" d="M1273.96,345.08c4.11,0,7.86,1.57,10.7,4.13c2.73-2.28,6.24-3.66,10.07-3.66c0.63,0,1.25,0.04,1.86,0.11
					c0.15-0.79,0.24-1.61,0.24-2.44c0-6.99-5.65-12.66-12.61-12.66s-12.61,5.67-12.61,12.66c0,0.68,0.06,1.35,0.16,2.01
					C1272.49,345.14,1273.22,345.08,1273.96,345.08z"/>
				<path fill="#FFFFFF" d="M1278.96,361.4c0-3.75,1.31-7.2,3.49-9.92c-2.26-2-5.23-3.22-8.49-3.22c-7.09,0-12.85,5.78-12.85,12.9
					c0,2.85,0.92,5.49,2.49,7.63h17.19C1279.62,366.58,1278.96,364.06,1278.96,361.4z"/>
				<path fill="#FFFFFF" d="M1294.73,348.73c-6.96,0-12.61,5.67-12.61,12.66c0,2.76,0.88,5.31,2.37,7.39h20.47
					c1.49-2.08,2.37-4.63,2.37-7.39C1307.34,354.4,1301.7,348.73,1294.73,348.73z"/>
				<path fill="#FFFFFF" d="M1295.28,377.76c0.34,0.81-0.03,1.74-0.83,2.08c-0.2,0.09-0.41,0.13-0.62,0.13
					c-0.61,0-1.2-0.36-1.46-0.96l-2.87-6.76c-0.04-0.09-0.07-0.19-0.09-0.29h-11.02l9.77,21.1c0.37,0.8,0.02,1.74-0.77,2.11
					c-0.22,0.1-0.44,0.15-0.67,0.15c-0.6,0-1.17-0.34-1.44-0.92l-10.31-22.27c-0.03-0.06-0.04-0.11-0.06-0.17h-10.55l17.86,37.73
					c0.79,1.68,3.22,1.68,4.01,0l17.86-37.73h-11.28L1295.28,377.76z"/>
			</g>
			<path fill="#FFFFFF" d="M1284.23,490.68c-7.89,0-14.29,6.4-14.29,14.29c0,7.89,6.4,14.29,14.29,14.29
				c7.89,0,14.29-6.4,14.29-14.29C1298.52,497.08,1292.12,490.68,1284.23,490.68z M1294.25,496.4c-0.37,1.09-0.44,2.23-0.54,3.35
				c-0.14,1.53-1.03,2.53-2.27,3.28c-0.74,0.46-1.56,0.71-2.42,0.82c-0.57,0.07-0.97,0.32-1.19,0.85c-0.41,1-0.85,1.98-1.21,3
				c-0.8,2.3-1.33,4.66-1.66,7.08c-0.1,0.7-0.24,1.4-0.38,2.1c-0.09,0.44-0.23,0.52-0.68,0.53c-0.3,0-0.59,0-0.89-0.01
				c-0.25-0.01-0.4-0.12-0.46-0.39c-0.34-1.55-0.68-3.1-1.05-4.64c-0.66-2.72-1.39-5.42-2.43-8.02c-1.05-2.65-2.59-5-4.49-7.12
				c-0.14-0.15-0.26-0.31-0.38-0.47c-0.02-0.03-0.01-0.07-0.03-0.15c0.13,0.02,0.24,0.01,0.33,0.05c0.47,0.25,0.99,0.45,1.4,0.77
				c2.19,1.71,3.88,3.8,4.91,6.42c0.79,2,1.33,4.07,1.88,6.14c0.2,0.74,0.41,1.48,0.62,2.21c0.04,0.14,0.1,0.27,0.19,0.48
				c0.09-0.23,0.17-0.38,0.22-0.54c0.57-1.71,1.13-3.41,1.72-5.12c0.56-1.63,1.24-3.2,2.11-4.69c0.51-0.87,1.08-1.7,1.78-2.44
				c0.19-0.2,0.35-0.42,0.53-0.63c-0.01-0.02-0.03-0.04-0.04-0.07c-0.11,0.02-0.23,0.02-0.33,0.08c-0.43,0.25-0.9,0.45-1.27,0.77
				c-0.91,0.81-1.67,1.75-2.15,2.89c-0.02,0.05-0.05,0.1-0.08,0.14c-0.01,0.02-0.04,0.03-0.13,0.09c-0.04-0.3-0.11-0.57-0.12-0.83
				c-0.05-2.18,1.41-4.79,4.02-5.3c1.41-0.28,2.81-0.62,4.21-0.94C1294.28,496.03,1294.35,496.09,1294.25,496.4z"/>
		</g>
	</g>
	<g>
		<rect x="1905.64" y="282.18" fill="#F19AC1" width="268.31" height="268.31"/>
		<g>
			<path fill="#F19AC1" d="M1754.51,522.13C1754.51,522.13,1754.51,522.13,1754.51,522.13c-6.18,0-13.02-3.3-15.83-10.58
				c-4.92,6.05-12.44,7.08-18.32,5.17c-5.88-1.91-11.36-7.16-11.78-14.95c-6.55,4.24-14.02,2.89-19.02-0.74
				c-5-3.63-8.59-10.32-6.59-17.86c-7.54,2.01-14.23-1.58-17.86-6.59c-3.63-5-4.98-12.47-0.74-19.02
				c-7.79-0.42-13.04-5.9-14.95-11.78c-1.91-5.88-0.88-13.4,5.17-18.32c-7.28-2.81-10.58-9.64-10.58-15.83
				c0-6.18,3.3-13.02,10.58-15.83c-6.05-4.92-7.08-12.44-5.17-18.32c1.91-5.88,7.16-11.36,14.95-11.78
				c-4.24-6.55-2.89-14.02,0.74-19.02c3.63-5,10.32-8.59,17.86-6.59c-2.01-7.54,1.58-14.23,6.59-17.86c5-3.64,12.47-4.98,19.02-0.74
				c0.42-7.79,5.9-13.04,11.78-14.95c5.88-1.91,13.4-0.88,18.32,5.17c2.81-7.28,9.64-10.58,15.83-10.58
				c6.18,0,13.02,3.3,15.83,10.58c4.92-6.05,12.44-7.08,18.32-5.17c5.88,1.91,11.36,7.16,11.78,14.95
				c6.55-4.24,14.02-2.89,19.02,0.74c5,3.63,8.59,10.32,6.59,17.86c7.54-2.01,14.23,1.58,17.86,6.59c3.63,5,4.98,12.47,0.74,19.02
				c7.79,0.42,13.04,5.9,14.95,11.78c1.91,5.88,0.88,13.4-5.17,18.32c7.28,2.81,10.58,9.64,10.58,15.83
				c0,6.18-3.3,13.02-10.58,15.83c6.05,4.92,7.08,12.44,5.17,18.32c-1.91,5.88-7.16,11.36-14.95,11.78
				c4.24,6.55,2.89,14.02-0.74,19.02c-3.63,5-10.33,8.59-17.86,6.59c2.01,7.54-1.58,14.23-6.59,17.86c-5,3.63-12.47,4.98-19.02,0.74
				c-0.42,7.79-5.9,13.04-11.78,14.95c-5.88,1.91-13.4,0.88-18.32-5.17C1767.53,518.83,1760.69,522.13,1754.51,522.13z
				 M1738.17,506.61c0.61-1.13,2.3-0.86,2.53,0.4l0.1,0.57c1.44,7.89,7.92,11.43,13.71,11.43c5.78,0,12.26-3.53,13.71-11.43
				l0.1-0.57c0.23-1.26,1.92-1.53,2.53-0.4l0.28,0.51c3.81,7.06,11.07,8.42,16.57,6.63c5.5-1.79,10.57-7.15,9.5-15.1l-0.08-0.58
				c-0.17-1.27,1.35-2.05,2.28-1.16l0.42,0.4c5.81,5.54,13.13,4.59,17.81,1.19c4.68-3.4,7.84-10.07,4.37-17.3l-0.25-0.52
				c-0.55-1.16,0.65-2.36,1.81-1.81l0.52,0.25c7.24,3.47,13.9,0.31,17.3-4.37c3.4-4.68,4.35-12-1.19-17.81l-0.4-0.42
				c-0.88-0.93-0.11-2.45,1.16-2.28l0.58,0.08c7.96,1.07,13.32-4.01,15.1-9.5c1.79-5.5,0.43-12.75-6.63-16.57l-0.51-0.28
				c-1.13-0.61-0.86-2.3,0.4-2.53l0.57-0.1c7.89-1.44,11.43-7.92,11.43-13.71s-3.53-12.26-11.43-13.71l-0.57-0.1
				c-1.26-0.23-1.53-1.92-0.4-2.53l0.51-0.28c7.06-3.81,8.42-11.07,6.63-16.57c-1.79-5.5-7.15-10.57-15.1-9.5l-0.58,0.08
				c-1.27,0.17-2.05-1.35-1.16-2.28l0.4-0.42c5.54-5.81,4.59-13.13,1.19-17.81c-3.4-4.68-10.06-7.84-17.3-4.37l-0.52,0.25
				c-1.16,0.55-2.36-0.65-1.81-1.81l0.25-0.52c3.47-7.23,0.31-13.9-4.37-17.3c-4.68-3.4-12-4.35-17.81,1.19l-0.42,0.4
				c-0.93,0.88-2.45,0.11-2.28-1.16l0.08-0.58c1.07-7.95-4.01-13.32-9.5-15.1c-5.5-1.79-12.75-0.43-16.57,6.63l-0.28,0.51
				c-0.61,1.13-2.3,0.86-2.53-0.4l-0.1-0.57c-1.44-7.89-7.92-11.43-13.71-11.43c-5.78,0-12.26,3.53-13.71,11.43l-0.1,0.57
				c-0.23,1.26-1.92,1.53-2.53,0.4l-0.28-0.51c-3.81-7.06-11.07-8.42-16.57-6.63c-5.5,1.79-10.57,7.15-9.51,15.1l0.08,0.58
				c0.17,1.27-1.35,2.05-2.28,1.16l-0.42-0.4c-5.81-5.54-13.13-4.59-17.81-1.19c-4.68,3.4-7.84,10.07-4.37,17.3l0.25,0.52
				c0.55,1.16-0.65,2.36-1.81,1.81l-0.52-0.25c-7.24-3.47-13.9-0.31-17.3,4.37c-3.4,4.68-4.35,12,1.19,17.81l0.4,0.42
				c0.88,0.93,0.11,2.45-1.16,2.28l-0.58-0.08c-7.95-1.07-13.32,4.01-15.1,9.5c-1.79,5.5-0.43,12.75,6.63,16.57l0.51,0.28
				c1.13,0.61,0.86,2.3-0.4,2.53l-0.57,0.1c-7.89,1.44-11.43,7.92-11.43,13.71s3.53,12.26,11.43,13.71l0.57,0.1
				c1.26,0.23,1.53,1.92,0.4,2.53l-0.51,0.28c-7.06,3.81-8.42,11.07-6.63,16.57s7.15,10.57,15.1,9.5l0.58-0.08
				c1.27-0.17,2.05,1.35,1.16,2.28l-0.4,0.42c-5.54,5.81-4.59,13.13-1.19,17.81c3.4,4.68,10.07,7.84,17.3,4.37l0.52-0.25
				c1.16-0.55,2.36,0.65,1.81,1.81l-0.25,0.52c-3.47,7.23-0.31,13.9,4.37,17.3c4.68,3.4,12,4.35,17.81-1.19l0.42-0.4
				c0.93-0.88,2.45-0.11,2.28,1.16l-0.08,0.58c-1.07,7.95,4.01,13.32,9.51,15.1c5.5,1.79,12.76,0.43,16.57-6.63L1738.17,506.61z"/>
			<g>
				<g>
					<path fill="#F19AC1" d="M1716.21,424.3h3.9c3.64,0,5.63,1.91,5.63,5.37v2.91c0,1.95-0.96,3.42-2.17,4.2
						c1.73,0.59,2.83,2.32,2.83,4.6v3.02c0,3.31-2.28,5.67-5.96,5.67h-4.23c-1.14,0-1.95-0.81-1.95-1.95v-21.86
						C1714.26,425.1,1715.07,424.3,1716.21,424.3z M1719.86,435.15c1.25,0,2.02-0.81,2.02-2.17V430c0-1.58-0.59-2.28-2.17-2.28
						h-1.58v7.43H1719.86z M1720.04,446.64c1.73,0,2.5-0.88,2.5-2.5v-3.02c0-1.66-0.85-2.54-2.39-2.54h-2.02v8.06H1720.04z"/>
					<path fill="#F19AC1" d="M1734.76,423.78c3.75,0,6.11,2.43,6.11,6.15v14.5c0,3.72-2.36,6.15-6.11,6.15s-6.11-2.43-6.11-6.15
						v-14.5C1728.65,426.21,1731.01,423.78,1734.76,423.78z M1734.76,447.22c1.36,0,2.21-0.92,2.21-2.25v-15.6
						c0-1.32-0.85-2.25-2.21-2.25c-1.36,0-2.21,0.92-2.21,2.25v15.6C1732.55,446.3,1733.4,447.22,1734.76,447.22z"/>
					<path fill="#F19AC1" d="M1742.86,448.33c0-0.37,0.11-0.63,0.18-0.85l7.29-19.73h-5.59c-1.03,0-1.73-0.74-1.73-1.73
						s0.7-1.73,1.73-1.73h8.21c1.03,0,1.73,0.74,1.73,1.73c0,0.37-0.11,0.63-0.18,0.88l-7.29,19.69h5.74c1.03,0,1.73,0.74,1.73,1.73
						s-0.7,1.73-1.73,1.73h-8.39C1743.52,450.06,1742.86,449.32,1742.86,448.33z M1746.98,417.56h0.81l0.96,2.21l0.96-2.21h0.81
						c0.96,0,1.55,0.66,1.55,1.47c0,0.33-0.11,0.66-0.33,0.99l-0.85,1.29c-0.59,0.88-0.96,1.44-2.13,1.44s-1.55-0.55-2.13-1.44
						l-0.85-1.29c-0.22-0.33-0.33-0.66-0.33-0.99C1745.43,418.22,1746.02,417.56,1746.98,417.56z"/>
					<path fill="#F19AC1" d="M1758.13,441.67c1.18,0,1.88,0.74,1.88,1.88v0.88c0,1.62,0.52,2.87,2.17,2.87
						c1.51,0,2.13-1.1,2.13-2.91c0-2.76-1.51-4.2-3.24-5.78c-2.69-2.43-4.93-4.89-4.93-8.58c0-4.16,2.25-6.26,5.82-6.26
						c3.42,0,5.67,2.21,5.67,5.78v1.29c0,1.1-0.74,1.8-1.84,1.8c-1.07,0-1.84-0.7-1.84-1.8v-1.18c0-1.58-0.66-2.54-1.99-2.54
						c-1.44,0-1.99,1.03-1.99,2.61c0,2.39,1.32,3.83,3.02,5.41c2.1,1.99,5.15,4.78,5.15,8.87c0,3.83-2.36,6.55-6.04,6.55
						c-3.64,0-5.78-2.58-5.78-6v-1.03C1756.33,442.29,1757.03,441.67,1758.13,441.67z"/>
					<path fill="#F19AC1" d="M1774.62,437.18v11.3c0,1.14-0.81,1.95-1.95,1.95c-1.18,0-1.95-0.81-1.95-1.95v-22.6
						c0-1.14,0.77-1.95,1.95-1.95c1.14,0,1.95,0.81,1.95,1.95v10.71l4.34-11.41c0.33-0.88,0.88-1.25,1.8-1.25
						c0.96,0,1.88,0.59,1.88,1.73c0,0.26-0.07,0.55-0.18,0.88l-4.12,10.38l4.27,10.71c0.15,0.37,0.22,0.66,0.22,0.96
						c0,1.14-0.81,1.84-1.88,1.84c-0.99,0-1.55-0.55-1.88-1.4L1774.62,437.18z"/>
					<path fill="#F19AC1" d="M1794.38,423.93c1.14,0,1.95,0.74,1.95,1.77c0,0.33-0.07,0.59-0.15,0.77l-4.31,12v10.01
						c0,1.14-0.81,1.95-1.95,1.95s-1.95-0.81-1.95-1.95v-10.01l-4.31-12c-0.07-0.18-0.15-0.52-0.15-0.77c0-1.03,0.81-1.77,1.95-1.77
						c1.07,0,1.66,0.59,1.91,1.44l2.36,7.84c0.07,0.26,0.15,0.55,0.18,0.81c0.04-0.26,0.11-0.55,0.18-0.81l2.36-7.84
						C1792.73,424.52,1793.32,423.93,1794.38,423.93z M1789.05,419.4c0.22-1.18,0.85-1.84,2.02-1.84c1.07,0,1.91,0.7,1.91,1.73
						c0,0.33-0.07,0.63-0.18,0.85l-1.14,2.61h-3.28L1789.05,419.4z"/>
				</g>
				<g>
					<path fill="#F19AC1" d="M1717.61,469.16v9.6c0,0.97-0.69,1.66-1.66,1.66c-1,0-1.66-0.69-1.66-1.66v-19.2
						c0-0.97,0.66-1.66,1.66-1.66c0.97,0,1.66,0.69,1.66,1.66v9.1l3.69-9.69c0.28-0.75,0.75-1.06,1.53-1.06
						c0.81,0,1.59,0.5,1.59,1.47c0,0.22-0.06,0.47-0.16,0.75l-3.5,8.82l3.63,9.1c0.12,0.31,0.19,0.56,0.19,0.81
						c0,0.97-0.69,1.56-1.59,1.56c-0.84,0-1.31-0.47-1.59-1.19L1717.61,469.16z"/>
					<path fill="#F19AC1" d="M1731.21,457.78c3.19,0,5.19,2.06,5.19,5.22v12.32c0,3.16-2,5.22-5.19,5.22
						c-3.19,0-5.19-2.06-5.19-5.22V463C1726.02,459.84,1728.02,457.78,1731.21,457.78z M1731.21,477.69c1.16,0,1.88-0.78,1.88-1.91
						v-13.26c0-1.13-0.72-1.91-1.88-1.91c-1.16,0-1.88,0.78-1.88,1.91v13.26C1729.33,476.91,1730.05,477.69,1731.21,477.69z"/>
					<path fill="#F19AC1" d="M1742.4,471.47v7.29c0,0.97-0.69,1.66-1.66,1.66c-0.97,0-1.66-0.69-1.66-1.66v-18.88
						c0-0.97,0.69-1.66,1.66-1.66h2.94c3.41,0,5.38,1.72,5.38,5.35v2.5c0,3.28-2.19,5.41-5.44,5.41H1742.4z M1743.52,468.53
						c1.41,0,2.22-0.84,2.22-2.34v-2.69c0-1.47-0.75-2.34-2.16-2.34h-1.19v7.38H1743.52z"/>
					<path fill="#F19AC1" d="M1752.74,458.21h6.25c0.88,0,1.47,0.63,1.47,1.47c0,0.88-0.59,1.47-1.47,1.47h-4.6v6.38h3.56
						c0.84,0,1.47,0.63,1.47,1.47c0,0.88-0.62,1.47-1.47,1.47h-3.56v6.69h4.63c0.88,0,1.47,0.63,1.47,1.47
						c0,0.84-0.59,1.47-1.47,1.47h-6.28c-0.97,0-1.66-0.69-1.66-1.66v-18.57C1751.09,458.9,1751.77,458.21,1752.74,458.21z"/>
					<path fill="#F19AC1" d="M1772.06,463.06v1.66c0,0.97-0.63,1.59-1.56,1.59c-0.97,0-1.56-0.62-1.56-1.59v-2.19
						c0-1.28-0.69-1.91-1.78-1.91c-1.09,0-1.75,0.62-1.75,1.91v13.26c0,1.28,0.66,1.91,1.75,1.91c1.09,0,1.78-0.63,1.78-1.91v-2.19
						c0-0.97,0.59-1.59,1.56-1.59c0.94,0,1.56,0.63,1.56,1.59v1.66c0,3.19-1.72,5.28-4.94,5.28c-3.28,0-5.03-2.03-5.03-5.28v-12.19
						c0-3.25,1.75-5.28,5.03-5.28C1770.34,457.78,1772.06,459.87,1772.06,463.06z M1765.56,452.49h0.69l0.81,1.88l0.81-1.88h0.69
						c0.81,0,1.31,0.56,1.31,1.25c0,0.28-0.09,0.56-0.28,0.84l-0.72,1.09c-0.5,0.75-0.81,1.22-1.81,1.22c-1,0-1.31-0.47-1.81-1.22
						l-0.72-1.09c-0.19-0.28-0.28-0.56-0.28-0.84C1764.25,453.05,1764.75,452.49,1765.56,452.49z"/>
					<path fill="#F19AC1" d="M1776.16,458.21h6.25c0.88,0,1.47,0.63,1.47,1.47c0,0.88-0.59,1.47-1.47,1.47h-4.6v6.38h3.56
						c0.84,0,1.47,0.63,1.47,1.47c0,0.88-0.62,1.47-1.47,1.47h-3.56v6.69h4.63c0.88,0,1.47,0.63,1.47,1.47
						c0,0.84-0.59,1.47-1.47,1.47h-6.28c-0.97,0-1.66-0.69-1.66-1.66v-18.57C1774.5,458.9,1775.19,458.21,1776.16,458.21z"/>
					<path fill="#F19AC1" d="M1789.25,469.16v9.6c0,0.97-0.69,1.66-1.66,1.66c-1,0-1.66-0.69-1.66-1.66v-19.2
						c0-0.97,0.66-1.66,1.66-1.66c0.97,0,1.66,0.69,1.66,1.66v9.1l3.69-9.69c0.28-0.75,0.75-1.06,1.53-1.06
						c0.81,0,1.59,0.5,1.59,1.47c0,0.22-0.06,0.47-0.16,0.75l-3.5,8.82l3.63,9.1c0.12,0.31,0.19,0.56,0.19,0.81
						c0,0.97-0.69,1.56-1.59,1.56c-0.84,0-1.31-0.47-1.59-1.19L1789.25,469.16z"/>
				</g>
			</g>
			<g>
				<path fill="#F19AC1" d="M1744.24,345.08c4.11,0,7.86,1.57,10.7,4.13c2.73-2.28,6.24-3.66,10.07-3.66c0.63,0,1.25,0.04,1.86,0.11
					c0.15-0.79,0.24-1.61,0.24-2.44c0-6.99-5.65-12.66-12.61-12.66c-6.96,0-12.61,5.67-12.61,12.66c0,0.68,0.06,1.35,0.16,2.01
					C1742.78,345.14,1743.5,345.08,1744.24,345.08z"/>
				<path fill="#F19AC1" d="M1749.24,361.4c0-3.75,1.31-7.2,3.49-9.92c-2.26-2-5.23-3.22-8.49-3.22c-7.09,0-12.85,5.78-12.85,12.9
					c0,2.85,0.92,5.49,2.49,7.63h17.19C1749.91,366.58,1749.24,364.06,1749.24,361.4z"/>
				<path fill="#F19AC1" d="M1765.01,348.73c-6.96,0-12.61,5.67-12.61,12.66c0,2.76,0.88,5.31,2.37,7.39h20.47
					c1.49-2.08,2.37-4.63,2.37-7.39C1777.62,354.4,1771.98,348.73,1765.01,348.73z"/>
				<path fill="#F19AC1" d="M1765.56,377.76c0.34,0.81-0.03,1.74-0.83,2.08c-0.2,0.09-0.41,0.13-0.62,0.13
					c-0.61,0-1.2-0.36-1.46-0.96l-2.87-6.76c-0.04-0.09-0.07-0.19-0.09-0.29h-11.02l9.77,21.1c0.37,0.8,0.02,1.74-0.77,2.11
					c-0.22,0.1-0.44,0.15-0.67,0.15c-0.6,0-1.17-0.34-1.44-0.92l-10.31-22.27c-0.03-0.06-0.04-0.11-0.06-0.17h-10.55l17.86,37.73
					c0.79,1.68,3.22,1.68,4.01,0l17.86-37.73h-11.28L1765.56,377.76z"/>
			</g>
			<path fill="#F19AC1" d="M1754.51,490.68c-7.89,0-14.29,6.4-14.29,14.29c0,7.89,6.4,14.29,14.29,14.29
				c7.89,0,14.29-6.4,14.29-14.29C1768.8,497.08,1762.4,490.68,1754.51,490.68z M1764.53,496.4c-0.37,1.09-0.44,2.23-0.54,3.35
				c-0.14,1.53-1.03,2.53-2.27,3.28c-0.74,0.46-1.56,0.71-2.42,0.82c-0.57,0.07-0.97,0.32-1.19,0.85c-0.41,1-0.85,1.98-1.21,3
				c-0.8,2.3-1.33,4.66-1.66,7.08c-0.1,0.7-0.24,1.4-0.38,2.1c-0.09,0.44-0.23,0.52-0.68,0.53c-0.3,0-0.59,0-0.89-0.01
				c-0.25-0.01-0.4-0.12-0.46-0.39c-0.34-1.55-0.68-3.1-1.05-4.64c-0.66-2.72-1.39-5.42-2.43-8.02c-1.05-2.65-2.59-5-4.49-7.12
				c-0.14-0.15-0.26-0.31-0.38-0.47c-0.02-0.03-0.01-0.07-0.03-0.15c0.13,0.02,0.24,0.01,0.33,0.05c0.47,0.25,0.99,0.45,1.4,0.77
				c2.19,1.71,3.88,3.8,4.91,6.42c0.79,2,1.33,4.07,1.88,6.14c0.2,0.74,0.41,1.48,0.62,2.21c0.04,0.14,0.1,0.27,0.19,0.48
				c0.09-0.23,0.17-0.38,0.22-0.54c0.57-1.71,1.13-3.41,1.72-5.12c0.56-1.63,1.24-3.2,2.11-4.69c0.51-0.87,1.08-1.7,1.78-2.44
				c0.19-0.2,0.35-0.42,0.53-0.63c-0.01-0.02-0.03-0.04-0.04-0.07c-0.11,0.02-0.23,0.02-0.33,0.08c-0.43,0.25-0.9,0.45-1.27,0.77
				c-0.91,0.81-1.67,1.75-2.15,2.89c-0.02,0.05-0.05,0.1-0.08,0.14c-0.01,0.02-0.04,0.03-0.13,0.09c-0.04-0.3-0.11-0.57-0.12-0.83
				c-0.05-2.18,1.41-4.79,4.02-5.3c1.41-0.28,2.81-0.62,4.21-0.94C1764.56,496.03,1764.64,496.09,1764.53,496.4z"/>
		</g>
		<g>
			<path fill="#FFFFFF" d="M2035.17,515.05C2035.17,515.05,2035.17,515.05,2035.17,515.05c-6.18,0-13.02-3.3-15.83-10.58
				c-4.92,6.05-12.44,7.08-18.32,5.17c-5.88-1.91-11.36-7.16-11.78-14.95c-6.55,4.24-14.02,2.89-19.02-0.74
				c-5-3.63-8.59-10.32-6.59-17.86c-7.54,2.01-14.23-1.58-17.86-6.59c-3.63-5-4.98-12.47-0.74-19.02
				c-7.79-0.42-13.04-5.9-14.95-11.78c-1.91-5.88-0.88-13.4,5.17-18.32c-7.28-2.81-10.58-9.64-10.58-15.83
				c0-6.18,3.3-13.02,10.58-15.83c-6.05-4.92-7.08-12.44-5.17-18.32c1.91-5.88,7.16-11.36,14.95-11.78
				c-4.24-6.55-2.89-14.02,0.74-19.02c3.63-5,10.32-8.59,17.86-6.59c-2.01-7.54,1.58-14.23,6.59-17.86c5-3.64,12.47-4.98,19.02-0.74
				c0.42-7.79,5.9-13.04,11.78-14.95c5.88-1.91,13.4-0.88,18.32,5.17c2.81-7.28,9.64-10.58,15.83-10.58
				c6.18,0,13.02,3.3,15.83,10.58c4.92-6.05,12.44-7.08,18.32-5.17c5.88,1.91,11.36,7.16,11.78,14.95
				c6.55-4.24,14.02-2.89,19.02,0.74c5,3.63,8.59,10.32,6.59,17.86c7.54-2.01,14.23,1.58,17.86,6.59c3.63,5,4.98,12.47,0.74,19.02
				c7.79,0.42,13.04,5.9,14.95,11.78c1.91,5.88,0.88,13.4-5.17,18.32c7.28,2.81,10.58,9.64,10.58,15.83
				c0,6.18-3.3,13.02-10.58,15.83c6.05,4.92,7.08,12.44,5.17,18.32c-1.91,5.88-7.16,11.36-14.95,11.78
				c4.24,6.55,2.89,14.02-0.74,19.02c-3.63,5-10.33,8.59-17.86,6.59c2.01,7.54-1.58,14.23-6.59,17.86c-5,3.63-12.47,4.98-19.02,0.74
				c-0.42,7.79-5.9,13.04-11.78,14.95c-5.88,1.91-13.4,0.88-18.32-5.17C2048.19,511.75,2041.35,515.05,2035.17,515.05z
				 M2018.83,499.53c0.61-1.13,2.3-0.86,2.53,0.4l0.1,0.57c1.44,7.89,7.92,11.43,13.71,11.43c5.78,0,12.26-3.53,13.71-11.43
				l0.1-0.57c0.23-1.26,1.92-1.53,2.53-0.4l0.28,0.51c3.81,7.06,11.07,8.42,16.57,6.63c5.5-1.79,10.57-7.15,9.5-15.1l-0.08-0.58
				c-0.17-1.27,1.35-2.05,2.28-1.16l0.42,0.4c5.81,5.54,13.13,4.59,17.81,1.19c4.68-3.4,7.84-10.07,4.37-17.3l-0.25-0.52
				c-0.55-1.16,0.65-2.36,1.81-1.81l0.52,0.25c7.24,3.47,13.9,0.31,17.3-4.37c3.4-4.68,4.35-12-1.19-17.81l-0.4-0.42
				c-0.88-0.93-0.11-2.45,1.16-2.28l0.58,0.08c7.96,1.07,13.32-4.01,15.1-9.5c1.79-5.5,0.43-12.75-6.63-16.57l-0.51-0.28
				c-1.13-0.61-0.86-2.3,0.4-2.53l0.57-0.1c7.89-1.44,11.43-7.92,11.43-13.71c0-5.78-3.53-12.26-11.43-13.71l-0.57-0.1
				c-1.26-0.23-1.53-1.92-0.4-2.53l0.51-0.28c7.06-3.81,8.42-11.07,6.63-16.57c-1.79-5.5-7.15-10.57-15.1-9.5l-0.58,0.08
				c-1.27,0.17-2.05-1.35-1.16-2.28l0.4-0.42c5.54-5.81,4.59-13.13,1.19-17.81c-3.4-4.68-10.06-7.84-17.3-4.37l-0.52,0.25
				c-1.16,0.55-2.36-0.65-1.81-1.81l0.25-0.52c3.47-7.23,0.31-13.9-4.37-17.3c-4.68-3.4-12-4.35-17.81,1.19l-0.42,0.4
				c-0.93,0.88-2.45,0.11-2.28-1.16l0.08-0.58c1.07-7.95-4.01-13.32-9.5-15.1c-5.5-1.79-12.75-0.43-16.57,6.63l-0.28,0.51
				c-0.61,1.13-2.3,0.86-2.53-0.4l-0.1-0.57c-1.44-7.89-7.92-11.43-13.71-11.43c-5.78,0-12.26,3.53-13.71,11.43l-0.1,0.57
				c-0.23,1.26-1.92,1.53-2.53,0.4l-0.28-0.51c-3.81-7.06-11.07-8.42-16.57-6.63c-5.5,1.79-10.57,7.15-9.5,15.1l0.08,0.58
				c0.17,1.27-1.35,2.05-2.28,1.16l-0.42-0.4c-5.81-5.54-13.13-4.59-17.81-1.19c-4.68,3.4-7.84,10.07-4.37,17.3l0.25,0.52
				c0.55,1.16-0.65,2.36-1.81,1.81l-0.52-0.25c-7.24-3.47-13.9-0.31-17.3,4.37c-3.4,4.68-4.35,12,1.19,17.81l0.4,0.42
				c0.88,0.93,0.11,2.45-1.16,2.28l-0.58-0.08c-7.95-1.07-13.32,4.01-15.1,9.5c-1.79,5.5-0.43,12.75,6.63,16.57l0.51,0.28
				c1.13,0.61,0.86,2.3-0.4,2.53l-0.57,0.1c-7.89,1.44-11.43,7.92-11.43,13.71c0,5.78,3.53,12.26,11.43,13.71l0.57,0.1
				c1.26,0.23,1.53,1.92,0.4,2.53l-0.51,0.28c-7.06,3.81-8.42,11.07-6.63,16.57s7.15,10.57,15.1,9.5l0.58-0.08
				c1.27-0.17,2.05,1.35,1.16,2.28l-0.4,0.42c-5.54,5.81-4.59,13.13-1.19,17.81c3.4,4.68,10.07,7.84,17.3,4.37l0.52-0.25
				c1.16-0.55,2.36,0.65,1.81,1.81l-0.25,0.52c-3.47,7.23-0.31,13.9,4.37,17.3c4.68,3.4,12,4.35,17.81-1.19l0.42-0.4
				c0.93-0.88,2.45-0.11,2.28,1.16l-0.08,0.58c-1.07,7.95,4.01,13.32,9.5,15.1c5.5,1.79,12.76,0.43,16.57-6.63L2018.83,499.53z"/>
			<g>
				<g>
					<path fill="#FFFFFF" d="M1996.87,417.22h3.9c3.64,0,5.63,1.91,5.63,5.37v2.91c0,1.95-0.96,3.42-2.17,4.2
						c1.73,0.59,2.83,2.32,2.83,4.6v3.02c0,3.31-2.28,5.67-5.96,5.67h-4.23c-1.14,0-1.95-0.81-1.95-1.95v-21.86
						C1994.92,418.03,1995.73,417.22,1996.87,417.22z M2000.51,428.08c1.25,0,2.02-0.81,2.02-2.17v-2.98c0-1.58-0.59-2.28-2.17-2.28
						h-1.58v7.43H2000.51z M2000.69,439.56c1.73,0,2.5-0.88,2.5-2.5v-3.02c0-1.66-0.85-2.54-2.39-2.54h-2.02v8.06H2000.69z"/>
					<path fill="#FFFFFF" d="M2015.42,416.71c3.75,0,6.11,2.43,6.11,6.15v14.5c0,3.72-2.36,6.15-6.11,6.15s-6.11-2.43-6.11-6.15
						v-14.5C2009.31,419.13,2011.66,416.71,2015.42,416.71z M2015.42,440.15c1.36,0,2.21-0.92,2.21-2.25v-15.6
						c0-1.32-0.85-2.25-2.21-2.25c-1.36,0-2.21,0.92-2.21,2.25v15.6C2013.21,439.23,2014.05,440.15,2015.42,440.15z"/>
					<path fill="#FFFFFF" d="M2023.51,441.25c0-0.37,0.11-0.63,0.18-0.85l7.29-19.73h-5.59c-1.03,0-1.73-0.74-1.73-1.73
						s0.7-1.73,1.73-1.73h8.21c1.03,0,1.73,0.74,1.73,1.73c0,0.37-0.11,0.63-0.18,0.88l-7.29,19.69h5.74c1.03,0,1.73,0.74,1.73,1.73
						s-0.7,1.73-1.73,1.73h-8.39C2024.17,442.98,2023.51,442.25,2023.51,441.25z M2027.63,410.49h0.81l0.96,2.21l0.96-2.21h0.81
						c0.96,0,1.55,0.66,1.55,1.47c0,0.33-0.11,0.66-0.33,0.99l-0.85,1.29c-0.59,0.88-0.96,1.44-2.13,1.44s-1.55-0.55-2.13-1.44
						l-0.85-1.29c-0.22-0.33-0.33-0.66-0.33-0.99C2026.09,411.15,2026.68,410.49,2027.63,410.49z"/>
					<path fill="#FFFFFF" d="M2038.79,434.59c1.18,0,1.88,0.74,1.88,1.88v0.88c0,1.62,0.52,2.87,2.17,2.87
						c1.51,0,2.13-1.1,2.13-2.91c0-2.76-1.51-4.2-3.24-5.78c-2.69-2.43-4.93-4.89-4.93-8.58c0-4.16,2.25-6.26,5.82-6.26
						c3.42,0,5.67,2.21,5.67,5.78v1.29c0,1.1-0.74,1.8-1.84,1.8c-1.07,0-1.84-0.7-1.84-1.8v-1.18c0-1.58-0.66-2.54-1.99-2.54
						c-1.44,0-1.99,1.03-1.99,2.61c0,2.39,1.32,3.83,3.02,5.41c2.1,1.99,5.15,4.78,5.15,8.87c0,3.83-2.36,6.55-6.04,6.55
						c-3.64,0-5.78-2.58-5.78-6v-1.03C2036.98,435.22,2037.68,434.59,2038.79,434.59z"/>
					<path fill="#FFFFFF" d="M2055.27,430.1v11.3c0,1.14-0.81,1.95-1.95,1.95c-1.18,0-1.95-0.81-1.95-1.95v-22.6
						c0-1.14,0.77-1.95,1.95-1.95c1.14,0,1.95,0.81,1.95,1.95v10.71l4.34-11.41c0.33-0.88,0.88-1.25,1.8-1.25
						c0.96,0,1.88,0.59,1.88,1.73c0,0.26-0.07,0.55-0.18,0.88l-4.12,10.38l4.27,10.71c0.15,0.37,0.22,0.66,0.22,0.96
						c0,1.14-0.81,1.84-1.88,1.84c-0.99,0-1.55-0.55-1.88-1.4L2055.27,430.1z"/>
					<path fill="#FFFFFF" d="M2075.04,416.85c1.14,0,1.95,0.74,1.95,1.77c0,0.33-0.07,0.59-0.15,0.77l-4.31,12v10.01
						c0,1.14-0.81,1.95-1.95,1.95s-1.95-0.81-1.95-1.95v-10.01l-4.31-12c-0.07-0.18-0.15-0.52-0.15-0.77c0-1.03,0.81-1.77,1.95-1.77
						c1.07,0,1.66,0.59,1.91,1.44l2.36,7.84c0.07,0.26,0.15,0.55,0.18,0.81c0.04-0.26,0.11-0.55,0.18-0.81l2.36-7.84
						C2073.38,417.44,2073.97,416.85,2075.04,416.85z M2069.7,412.33c0.22-1.18,0.85-1.84,2.02-1.84c1.07,0,1.91,0.7,1.91,1.73
						c0,0.33-0.07,0.63-0.18,0.85l-1.14,2.61h-3.28L2069.7,412.33z"/>
				</g>
				<g>
					<path fill="#FFFFFF" d="M1998.26,462.08v9.6c0,0.97-0.69,1.66-1.66,1.66c-1,0-1.66-0.69-1.66-1.66v-19.2
						c0-0.97,0.66-1.66,1.66-1.66c0.97,0,1.66,0.69,1.66,1.66v9.1l3.69-9.69c0.28-0.75,0.75-1.06,1.53-1.06
						c0.81,0,1.59,0.5,1.59,1.47c0,0.22-0.06,0.47-0.16,0.75l-3.5,8.82l3.63,9.1c0.12,0.31,0.19,0.56,0.19,0.81
						c0,0.97-0.69,1.56-1.59,1.56c-0.84,0-1.31-0.47-1.59-1.19L1998.26,462.08z"/>
					<path fill="#FFFFFF" d="M2011.86,450.7c3.19,0,5.19,2.06,5.19,5.22v12.32c0,3.16-2,5.22-5.19,5.22c-3.19,0-5.19-2.06-5.19-5.22
						v-12.32C2006.67,452.77,2008.67,450.7,2011.86,450.7z M2011.86,470.62c1.16,0,1.88-0.78,1.88-1.91v-13.26
						c0-1.13-0.72-1.91-1.88-1.91c-1.16,0-1.88,0.78-1.88,1.91v13.26C2009.99,469.84,2010.71,470.62,2011.86,470.62z"/>
					<path fill="#FFFFFF" d="M2023.05,464.4v7.29c0,0.97-0.69,1.66-1.66,1.66c-0.97,0-1.66-0.69-1.66-1.66V452.8
						c0-0.97,0.69-1.66,1.66-1.66h2.94c3.41,0,5.38,1.72,5.38,5.35v2.5c0,3.28-2.19,5.41-5.44,5.41H2023.05z M2024.18,461.46
						c1.41,0,2.22-0.84,2.22-2.34v-2.69c0-1.47-0.75-2.34-2.16-2.34h-1.19v7.38H2024.18z"/>
					<path fill="#FFFFFF" d="M2033.4,451.14h6.25c0.88,0,1.47,0.63,1.47,1.47c0,0.88-0.59,1.47-1.47,1.47h-4.6v6.38h3.56
						c0.84,0,1.47,0.63,1.47,1.47c0,0.88-0.62,1.47-1.47,1.47h-3.56v6.69h4.63c0.88,0,1.47,0.63,1.47,1.47
						c0,0.84-0.59,1.47-1.47,1.47h-6.28c-0.97,0-1.66-0.69-1.66-1.66V452.8C2031.74,451.83,2032.43,451.14,2033.4,451.14z"/>
					<path fill="#FFFFFF" d="M2052.72,455.99v1.66c0,0.97-0.63,1.59-1.56,1.59c-0.97,0-1.56-0.62-1.56-1.59v-2.19
						c0-1.28-0.69-1.91-1.78-1.91c-1.09,0-1.75,0.62-1.75,1.91v13.26c0,1.28,0.66,1.91,1.75,1.91c1.09,0,1.78-0.63,1.78-1.91v-2.19
						c0-0.97,0.59-1.59,1.56-1.59c0.94,0,1.56,0.63,1.56,1.59v1.66c0,3.19-1.72,5.28-4.94,5.28c-3.28,0-5.03-2.03-5.03-5.28v-12.19
						c0-3.25,1.75-5.28,5.03-5.28C2051,450.7,2052.72,452.8,2052.72,455.99z M2046.21,445.42h0.69l0.81,1.88l0.81-1.88h0.69
						c0.81,0,1.31,0.56,1.31,1.25c0,0.28-0.09,0.56-0.28,0.84l-0.72,1.09c-0.5,0.75-0.81,1.22-1.81,1.22c-1,0-1.31-0.47-1.81-1.22
						l-0.72-1.09c-0.19-0.28-0.28-0.56-0.28-0.84C2044.9,445.98,2045.4,445.42,2046.21,445.42z"/>
					<path fill="#FFFFFF" d="M2056.81,451.14h6.25c0.88,0,1.47,0.63,1.47,1.47c0,0.88-0.59,1.47-1.47,1.47h-4.6v6.38h3.56
						c0.84,0,1.47,0.63,1.47,1.47c0,0.88-0.62,1.47-1.47,1.47h-3.56v6.69h4.63c0.88,0,1.47,0.63,1.47,1.47
						c0,0.84-0.59,1.47-1.47,1.47h-6.28c-0.97,0-1.66-0.69-1.66-1.66V452.8C2055.15,451.83,2055.84,451.14,2056.81,451.14z"/>
					<path fill="#FFFFFF" d="M2069.91,462.08v9.6c0,0.97-0.69,1.66-1.66,1.66c-1,0-1.66-0.69-1.66-1.66v-19.2
						c0-0.97,0.66-1.66,1.66-1.66c0.97,0,1.66,0.69,1.66,1.66v9.1l3.69-9.69c0.28-0.75,0.75-1.06,1.53-1.06
						c0.81,0,1.59,0.5,1.59,1.47c0,0.22-0.06,0.47-0.16,0.75l-3.5,8.82l3.63,9.1c0.12,0.31,0.19,0.56,0.19,0.81
						c0,0.97-0.69,1.56-1.59,1.56c-0.84,0-1.31-0.47-1.59-1.19L2069.91,462.08z"/>
				</g>
			</g>
			<g>
				<path fill="#FFFFFF" d="M2024.9,338.01c4.11,0,7.86,1.57,10.7,4.13c2.73-2.28,6.24-3.66,10.07-3.66c0.63,0,1.25,0.04,1.86,0.11
					c0.15-0.79,0.24-1.61,0.24-2.44c0-6.99-5.65-12.66-12.61-12.66s-12.61,5.67-12.61,12.66c0,0.68,0.06,1.35,0.16,2.01
					C2023.43,338.06,2024.16,338.01,2024.9,338.01z"/>
				<path fill="#FFFFFF" d="M2029.9,354.32c0-3.75,1.31-7.2,3.49-9.92c-2.26-2-5.23-3.22-8.49-3.22c-7.09,0-12.85,5.78-12.85,12.9
					c0,2.85,0.92,5.49,2.49,7.63h17.19C2030.56,359.5,2029.9,356.99,2029.9,354.32z"/>
				<path fill="#FFFFFF" d="M2045.67,341.66c-6.96,0-12.61,5.67-12.61,12.66c0,2.76,0.88,5.31,2.37,7.39h20.47
					c1.49-2.08,2.37-4.63,2.37-7.39C2058.28,347.33,2052.63,341.66,2045.67,341.66z"/>
				<path fill="#FFFFFF" d="M2046.22,370.69c0.34,0.81-0.03,1.74-0.83,2.08c-0.2,0.09-0.41,0.13-0.62,0.13
					c-0.61,0-1.2-0.36-1.45-0.96l-2.87-6.76c-0.04-0.09-0.07-0.19-0.09-0.29h-11.02l9.77,21.1c0.37,0.8,0.02,1.74-0.77,2.11
					c-0.22,0.1-0.44,0.15-0.67,0.15c-0.6,0-1.17-0.34-1.44-0.92l-10.31-22.27c-0.03-0.06-0.04-0.11-0.06-0.17h-10.55l17.86,37.73
					c0.79,1.68,3.22,1.68,4.01,0l17.86-37.73h-11.28L2046.22,370.69z"/>
			</g>
			<path fill="#FFFFFF" d="M2035.17,483.6c-7.89,0-14.29,6.4-14.29,14.29c0,7.89,6.4,14.29,14.29,14.29
				c7.89,0,14.29-6.4,14.29-14.29C2049.46,490,2043.06,483.6,2035.17,483.6z M2045.18,489.32c-0.37,1.09-0.44,2.23-0.54,3.35
				c-0.14,1.53-1.03,2.53-2.27,3.28c-0.74,0.46-1.56,0.71-2.42,0.82c-0.57,0.07-0.97,0.32-1.19,0.85c-0.41,1-0.85,1.98-1.21,3
				c-0.8,2.3-1.33,4.66-1.66,7.08c-0.09,0.7-0.23,1.4-0.38,2.1c-0.09,0.44-0.23,0.52-0.68,0.53c-0.3,0-0.59,0-0.89-0.01
				c-0.25-0.01-0.4-0.12-0.46-0.39c-0.34-1.55-0.68-3.1-1.05-4.64c-0.66-2.72-1.39-5.42-2.43-8.02c-1.05-2.65-2.59-5-4.49-7.12
				c-0.14-0.15-0.26-0.31-0.38-0.47c-0.02-0.03-0.01-0.07-0.03-0.15c0.13,0.02,0.24,0.01,0.33,0.05c0.47,0.25,0.99,0.45,1.4,0.77
				c2.19,1.71,3.88,3.8,4.91,6.42c0.79,2,1.33,4.07,1.88,6.14c0.2,0.74,0.41,1.48,0.62,2.21c0.04,0.14,0.1,0.27,0.19,0.48
				c0.09-0.23,0.17-0.38,0.22-0.54c0.57-1.71,1.13-3.41,1.72-5.12c0.56-1.63,1.24-3.2,2.11-4.69c0.51-0.87,1.08-1.7,1.78-2.44
				c0.19-0.2,0.35-0.42,0.53-0.63c-0.01-0.02-0.03-0.04-0.04-0.07c-0.11,0.02-0.23,0.02-0.33,0.08c-0.43,0.25-0.9,0.45-1.27,0.77
				c-0.91,0.81-1.67,1.75-2.15,2.89c-0.02,0.05-0.05,0.1-0.08,0.14c-0.01,0.02-0.04,0.03-0.13,0.09c-0.04-0.3-0.11-0.57-0.12-0.83
				c-0.05-2.18,1.41-4.79,4.02-5.3c1.41-0.28,2.81-0.62,4.21-0.94C2045.22,488.95,2045.29,489.01,2045.18,489.32z"/>
		</g>
	</g>
</g>
</svg>
